<svg xmlns="http://www.w3.org/2000/svg" id="Layer_2" data-name="Layer 2" viewBox="0 0 861.28 152.82"><defs><style>      .cls-1 {        fill: #aac9ce;      }    </style></defs><g id="Layer_1-2" data-name="Layer 1"><path class="cls-1" d="M709.12,91.33l.29-.64c3.47-7.77,5.28-15.98,5.72-23.99.39-8.01-.59-15.74-2.79-22.48-3.91-12.27-11.63-21.16-21.31-21.55-4.3-.15-7.38,2.35-8.94,6.4-1.76,4.74-1.91,11.29-.24,18.91,1.81,8.21,5.77,17.3,12.02,26.29,4.1,5.82,9.14,11.58,15.25,17.05h0ZM533.14,97.68c2.39-3.32,4.35-6.74,5.86-10.21,3.08-7.18,4.4-14.51,4.15-21.5-.24-6.84-1.95-13.29-4.84-18.86-5.47-10.46-15.25-17.45-26.93-16.81-5.82.34-9.29,3.08-10.56,7.23-1.22,4.06-.93,9.38.73,15.49,1.86,6.84,5.38,14.37,10.6,21.94,5.33,7.77,12.36,15.59,20.96,22.72h0ZM342.95,93.72c5.47-6.7,9.24-13.88,11.68-21.06l.15-.34c2.54-7.72,3.52-15.34,3.27-22.38-.24-6.89-1.71-13.1-4.01-18.08-2.88-6.16-6.89-9.97-10.95-9.29-5.42.88-9.77,9.58-11.43,21.45-1.03,7.53-.78,16.08,1.17,24.97,1.81,8.31,5.08,16.76,10.12,24.73ZM164.97,79.5c19.99-13.68,31.62-30.05,25.31-49.21-2.93-8.89-5.77-12.02-8.06-11.29-4.35,1.47-9.19,7.82-13,16.81-4.25,10.16-6.69,23.07-5.42,36.06.24,2.54.64,5.08,1.17,7.62ZM10.89,150.31c-5.08.83-9.92-2.59-10.75-7.72-.88-5.08,2.59-9.92,7.67-10.75.39-.05,86.01-14.07,140.4-42.37-1.56-5.23-2.54-10.51-3.03-15.83-1.56-16.18,1.47-32.35,6.84-45.06,5.86-13.88,14.86-24.24,24.39-27.37,12.56-4.11,24.63,1.81,31.67,23.31,9.63,29.22-8.31,52.78-36.75,71.3,12.46,21.36,41.49,37.29,98.37,31.86,26.44-2.88,45.79-10.7,59.52-20.92l-.73-1.03c-7.04-10.51-11.58-21.8-13.98-32.79-2.39-11-2.69-21.84-1.37-31.42,2.74-20.04,13-35.09,26.88-37.43,13.34-2.2,24.53,5.96,31.03,19.84,3.27,7.09,5.33,15.83,5.67,25.36.34,9.09-.93,19.01-4.2,28.88l-.15.49c-3.47,10.21-9.04,20.38-17.2,29.71,19.74,18.37,53.36,30.4,106.58,23.99l.59-.05c26.05-3.52,44.86-11.34,57.71-21.26-9.53-8.06-17.3-16.81-23.31-25.56-6.45-9.38-10.9-18.86-13.29-27.61-2.54-9.43-2.74-18.33-.54-25.7,3.57-11.92,12.66-19.74,27.46-20.57,19.64-1.12,35.77,10.12,44.47,26.88,4.15,7.97,6.65,17.2,6.99,26.88.34,9.63-1.42,19.74-5.72,29.56-2,4.59-4.54,9.19-7.72,13.59,23.02,13.98,53.9,23.26,92.02,20.87h.83c27.07-.68,45.64-9.77,57.37-22.43-8.11-6.99-14.76-14.47-20.04-21.99-7.82-11.24-12.71-22.63-15-33.03-2.44-11.09-1.95-21.31,1.03-29.37,4.45-11.87,13.73-19.06,27.12-18.57,18.42.68,32.16,14.95,38.41,34.5,2.88,8.89,4.15,18.91,3.67,29.13-.54,10.21-2.88,20.72-7.33,30.69-.68,1.51-1.42,3.08-2.25,4.54,27.37,17.64,68.56,29.32,126.91,24.19,5.13-.44,9.68,3.37,10.12,8.5.44,5.18-3.37,9.72-8.5,10.16-63.19,5.52-108.54-7.57-139.03-27.42-14.71,16.76-37.97,28.88-71.93,29.76h-.24c-44.08,2.74-79.7-8.65-106-25.56-15.49,13.44-38.46,23.99-70.71,28.29-.29.05-.59.15-.88.15-60.5,7.28-99.3-7.48-122.51-29.81-16.32,12.36-39.05,21.8-69.78,25.12h-.1c-66.8,6.4-101.4-13.73-116.7-40.85-58.94,31.08-143.57,44.81-143.97,44.91h0Z"></path></g></svg>