<svg xmlns="http://www.w3.org/2000/svg" id="Layer_2" data-name="Layer 2" viewBox="0 0 704.31 747.28"><defs><style>      .cls-1 {        fill: #aac9ce;      }      .cls-2 {        fill: #ffd6a3;      }    </style></defs><g id="Layer_1-2" data-name="Layer 1"><g><path class="cls-1" d="M5.32,520.18c10.25,20.23,32.73,31.14,54.05,35.55,12.05,2.49,24.6,2.92,36.86,2.36,12.96-.59,25.8-2.65,38.41-5.66,25.6-6.12,49.9-16.75,72.94-29.34,23.06-12.59,45.04-27.27,66.05-43.03,1.4-1.05,2.79-2.1,4.18-3.17-8.01,16.46-14.91,33.48-20.68,50.84-6.69,20.11-11.78,40.76-15.2,61.67-1.82,11.14-3.19,22.37-4.14,33.62-.92,10.99-1.63,22.14-1.23,33.18.25,6.67,1.03,13.45,2.8,19.9,1.11,4.02,2.67,7.96,4.6,11.7.18.96.39,1.91.7,2.86.61,1.85,1.45,3.64,2.27,5.39,1.99,4.26,4.9,8.02,7.75,11.73,6.55,8.51,13.45,16.94,21.87,23.69,4.09,3.28,8.44,6.33,13.11,8.73,2.69,1.38,5.49,2.51,8.31,3.57,2.07.77,4.18,1.41,6.33,1.9,3.48.78,7.09,1.26,10.69,1.35.69.06,1.37.11,2.06.15,5.56.35,11.01-.21,16.5-1.09,4.1-.66,8.13-1.73,12.02-3.18.08-.02.15-.03.23-.05,11.37-2.51,22.34-7.65,31.64-14.66,10.48-7.9,18.91-18.09,25.63-29.3,13.11-21.87,19.17-47.71,21.64-72.87,2.46-24.98,1.23-50.18-3.13-74.88-4.42-24.99-11.72-49.39-21.19-72.91-2.45-6.09-5.05-12.12-7.76-18.09,15.6,16.28,31.2,32.57,46.8,48.85,19.91,20.79,39.65,42.02,62.44,59.73,21.83,16.96,46.39,30.88,73.58,36.96,13.01,2.91,26.61,4.12,39.9,2.76,13.18-1.35,25.64-4.97,37.52-10.83,18.34-9.05,34.43-24.37,42.98-43.15,4.35-7.13,7.32-15.11,8.17-23.4,1.35-13.12-1.88-25.68-7.92-37.28-5.79-11.12-14.19-20.87-23.28-29.43-10.22-9.62-21.65-17.96-33.42-25.56-24.08-15.56-50.54-27.02-77.84-35.62-20.16-6.35-40.8-10.96-61.65-14.35,8.02-1.23,16.01-2.66,23.95-4.34,26.64-5.64,52.73-13.78,77.39-25.42,24.23-11.44,48.3-25.68,65.8-46.38,8.55-10.11,15.3-21.68,19.05-34.41,3.27-11.09,4.13-23.21,2.24-34.63-.81-4.86-2.07-9.67-3.84-14.28-.32-1.37-.68-2.72-1.08-4.07-5.01-16.81-16.15-30.79-31.26-39.64-14.11-8.26-30.88-11.76-47.13-11.31-18.18.51-35.97,5.52-52.75,12.25-15.6,6.26-30.66,13.82-44.96,22.65-28.04,17.31-53.28,39.08-76.05,62.81-11.33,11.81-22.07,24.14-32.39,36.83,2.31-6.56,4.54-13.14,6.84-19.69,8.9-25.4,17.8-50.8,26.71-76.2,4.33-12.35,8.73-24.69,12.95-37.07,3.96-11.63,7.66-23.37,10.25-35.39,1.69-7.86,2.96-15.89,3.55-23.95,1.17-5.24,1.93-10.57,2.28-15.93.51-7.65-.13-15.21-1.38-22.76-1.1-6.69-3-13.25-5.69-19.47-2.92-6.74-6.3-13.14-10.69-19.04-4.38-5.89-9.28-11.4-14.86-16.19-11.12-9.56-24.26-16.74-38.47-20.51-4.18-1.11-8.4-1.76-12.7-2.25-3.63-.41-7.29-.53-10.93-.27-4.38.32-8.83,1-13.03,2.31-.21.06-.4.14-.61.21-3.28.48-6.53,1.21-9.71,2.21-11.8,3.7-22.28,10.95-30.79,19.82-19.52,20.36-27.09,48.59-30.31,75.9-3.49,29.58-4.25,59.87-.3,89.44,3.83,28.73,12.23,56.6,21.69,83.92,5.74,16.56,11.67,33.05,17.65,49.53-.16.3-.31.59-.46.9-1.93-3.04-3.88-6.05-5.87-9.05-15.98-24.12-33.87-46.93-53.35-68.32-19.35-21.25-40.36-40.99-62.8-58.95-22.18-17.74-45.85-34.34-73.3-42.72-12.65-3.86-26.31-5.66-39.46-3.66-13.44,2.04-25.87,7.7-36,16.78-18.19,16.3-25.79,41.78-25.09,65.63.35,12.03,2.9,24.23,7.72,35.28,5.75,13.19,13.89,24.97,23.52,35.6,18.93,20.9,43.41,36.23,68.23,49.15,29.42,15.3,60.33,27.6,92.05,37.25,2.03.62,4.06,1.22,6.09,1.82-21.67-.79-43.36-1.25-65,.23-26.94,1.84-54.05,6.81-78.81,17.89-22.36,10-43.2,24.51-58.19,44.09-15.85,20.7-28.03,49.65-15.29,74.8Z"></path><path class="cls-2" d="M423.28,394.31c0,4.9-.48,9.76-1.44,14.57-.96,4.81-2.37,9.48-4.25,14.01-1.88,4.53-4.18,8.84-6.9,12.91-2.72,4.08-5.82,7.85-9.29,11.32-3.47,3.47-7.24,6.56-11.32,9.29-4.08,2.73-8.38,5.03-12.91,6.9-4.53,1.88-9.2,3.29-14.01,4.25-4.81.96-9.67,1.44-14.57,1.44-4.9,0-9.76-.48-14.57-1.44-4.81-.96-9.48-2.37-14.01-4.25-4.53-1.88-8.84-4.18-12.91-6.9-4.08-2.72-7.85-5.82-11.32-9.29-3.47-3.47-6.56-7.24-9.29-11.32-2.73-4.08-5.03-8.38-6.9-12.91-1.88-4.53-3.29-9.2-4.25-14.01-.96-4.81-1.44-9.67-1.44-14.57s.48-9.76,1.44-14.57c.96-4.81,2.37-9.48,4.25-14.01,1.88-4.53,4.18-8.84,6.9-12.91,2.72-4.08,5.82-7.85,9.29-11.32,3.47-3.47,7.24-6.56,11.32-9.29,4.08-2.73,8.38-5.03,12.91-6.9,4.53-1.88,9.2-3.29,14.01-4.25,4.81-.96,9.67-1.44,14.57-1.44s9.76.48,14.57,1.44c4.81.96,9.48,2.37,14.01,4.25,4.53,1.88,8.84,4.18,12.91,6.9,4.08,2.73,7.85,5.82,11.32,9.29,3.47,3.47,6.56,7.24,9.29,11.32,2.72,4.08,5.03,8.38,6.9,12.91,1.88,4.53,3.29,9.2,4.25,14.01.96,4.81,1.44,9.67,1.44,14.57Z"></path></g></g></svg>