<svg xmlns="http://www.w3.org/2000/svg" id="Layer_2" data-name="Layer 2" viewBox="0 0 644.4 627.01"><defs><style>      .cls-1 {        fill: #867195;      }    </style></defs><g id="Layer_1-2" data-name="Layer 1"><path class="cls-1" d="M479.09,458.12c.05.08.22.19.25.18.75-.56,1.47-1.14,2.21-1.71-.77.32-1.56.64-2.42,1.09-.06.23-.08.35-.04.44ZM486.62,346.18c-.33.29-.55.7-.81,1.06.8-.68,1.6-1.35,2.26-2-.57.33-1.05.59-1.45.94ZM61.66,364.45c-.69-1.17-1.38-2.33-2.12-3.47.16,2.1.36,4.16.56,6.23.49-.98.98-1.97,1.48-2.91.01.03.08.14.08.14ZM516.44,183.98c-.28.27-.53.54-.81.81.33.05.68.09,1.09.05-.05-.36-.16-.61-.28-.86ZM345.28,554.16c.46-.22.93-.42,1.36-.68.19-.11.27-.38.41-.58-.47.21-.93.44-1.53.7-.17.22-.21.38-.23.56ZM514.4,252.57c.38-.33.84-.6,1.14-1,.17-.22.13-.63.17-.95-.33.36-.66.73-1.1,1.19-.13.33-.16.54-.21.76ZM312.63,580.54s-.09-.15-.14-.21c-.77.52-1.55,1.02-2.33,1.54.12.02.28.09.36.04.37-.21.71-.47,1.21-.76.41-.24.65-.42.9-.6ZM540.92,88.51c-.09-.27-.19-.55-.27-.81-.58.28-1.15.57-1.62.98.69.02,1.29-.06,1.89-.17ZM228.86,325.89c-.03.29-.2.74-.1.83.45.37,1,.62,1.45.77-.48-.63-.92-1.11-1.35-1.6ZM352.31,24.55c-.44.47-.87.94-1.31,1.41.38-.13.77-.25,1.24-.48.08-.37.07-.65.07-.93ZM294.3,475.49c.63-.34,1.26-.7,1.87-1.08-.69.22-1.38.44-2.16.75.03.18.21.37.29.33ZM75.59,494.8c.22.07.43.15.66.23.12-.71.25-1.41.26-2.24-.4.59-.66,1.28-.92,2ZM379.4,243.86c.23.06.45.13.66.18.12-.69.27-1.38.35-1.95-.34.67-.69,1.22-1.01,1.77ZM507.66,99.76c.19.03.51.15.56.09.41-.56.77-1.18,1.06-1.85-.58.52-1.09,1.13-1.61,1.76ZM300.39,588.75c-.1-.04-.29-.15-.33-.13-.73.59-1.46,1.19-2.06,1.75.88-.58,1.63-1.09,2.39-1.62ZM50.48,349.01c.11-.62.28-1.23.29-1.86,0-.17-.43-.4-.66-.61-.02.61-.04,1.23-.05,1.97.16.25.28.36.41.49ZM620.52,217.67c-.33.29-.67.59-1,.87.5.41,1,.79,1.6,1.03-.13-.74-.36-1.32-.6-1.9ZM241.27,501.11c.78-.43,1.39-.94,1.95-1.47.11-.11.1-.35.15-.53-.77.68-1.53,1.36-2.29,2.01-.01-.03-.02-.1.19,0ZM317.27,577.01c.08.05.19.13.23.11.83-.54,1.65-1.1,2.48-1.65-.6.21-1.21.43-1.94.72-.33.36-.54.59-.76.83ZM349.45,547.72c.14.21.3.44.44.65.46-.48.93-.96,1.25-1.46-.65.27-1.17.54-1.69.81ZM473.31,369.71c-.54.63-.93,1.13-1.31,1.63.37.1.75.19,1.12.29.07-.7.14-1.37.24-2.06.04,0,.11-.01-.05.14ZM565.63,206.36c-.15-.14-.38-.41-.4-.38-.58.46-1.15.94-1.57,1.44.76-.35,1.38-.71,1.97-1.05ZM551.99,479.16c.66-.43,1.18-.63,1.54-.99.48-.48.85-1.07,1.26-1.63-1,.93-2.01,1.86-2.98,2.75,0-.05-.03.04.18-.13ZM373.33,7.89c.54-.33,1.16-.61,1.63-1.02.25-.21.24-.69.35-1.04-.35.23-.7.48-1.17.84-.35.49-.57.86-.81,1.22ZM93.44,255.93c.59-.02,1.18-.04,1.75-.07-.36-.41-.74-.82-1.26-1.25-.26.42-.37.87-.49,1.32ZM52.11,454.51c-.1-.81-.18-1.61-.28-2.42-.07.7-.13,1.41-.15,2.22.18.14.31.17.44.19ZM552.35,214.74c-.38-.01-.85-.15-1.13,0-.26.15-.32.61-.45.96.11-.01.21-.01.43-.02.46-.32.81-.63,1.15-.93ZM477.07,291.95c-.06.05.12.43.21.67.44-.45.9-.89,1.35-1.48-.54.18-1.08.45-1.56.81ZM472.95,297.68c-.13.21-.11.53-.16.78.54-.43,1.14-.82,1.63-1.31.11-.11-.14-.56-.22-.85-.08.07-.17.14-.35.29-.38.42-.69.73-.9,1.09ZM454.32,248.7c-.35.09-.85.08-1,.32-.42.59-.67,1.3-.99,1.94.32-.23.64-.47,1.07-.84.39-.56.66-.99.93-1.42ZM88.78,521.78c-.08.39-.15.77-.21,1.17.37.06.72.11,1.01.04-.33-.5-.56-.85-.8-1.21ZM26.61,88.67c-.01-.11,0-.25-.04-.31-.58-.6-1.16-1.21-1.77-1.78-.08-.07-.35.07-.54.1.49.59.98,1.18,1.57,1.9.33.11.56.09.77.09ZM264.49,486.85c.3.04.76.24.86.1.43-.46.76-1.04,1.12-1.56-.49.14-.97.27-1.56.52-.21.38-.31.66-.42.94ZM349.53,32.66c-.1-1.03-.19-1.79-.29-2.56-.38.62-.84,1.19-1.08,1.88-.04.1.89.61,1.37.89,0-.05-.02.05-.01-.21ZM300.29,424.14c-.4-.5-.69-.95-.99-1.39-.11.53-.4,1.1-.27,1.58.13.54.66,1.02,1,1.53.12-.59.22-1.18.36-1.74.01.03.02.1-.1.02ZM229.86,505.03c-.08,0-.12.32-.18.49.84-.09,1.7-.17,2.64-.38-.76-.1-1.61-.13-2.46-.11ZM395.23,281.76c-.02-.53-.06-1.05-.07-1.58-.46.22-.91.45-1.3.83.5.34.94.54,1.37.75ZM10.22,121.2c.16-.07.45-.21.44-.22-.43-.86-.89-1.71-1.37-2.44.29.96.61,1.81.93,2.66ZM375.18,332.67c.24-.1.7-.28.69-.31-.24-.59-.52-1.17-.95-1.75-.01.68.12,1.38.27,2.07ZM382.61,109.91c-.26.25-.79.54-.73.71.23.77.62,1.51.94,2.26.1-.37.23-.75.3-1.28-.19-.69-.36-1.2-.51-1.69ZM435.24,373.42c-.45.21-.88.43-1.33.65.5.31,1.02.62,1.69.91-.02-.54-.2-1.05-.36-1.56ZM570.92,289.65c.33-.33.64-.65.98-.97-.45-.25-.91-.49-1.49-.6.09.62.29,1.1.51,1.57ZM535.07,488.14c.55.03,1.12.05,1.67.08-.12-.37-.24-.75-.51-1.14-.5.35-.83.69-1.16,1.05ZM264.04,495.53c.41.01.99.21,1.18.03.32-.33.39-.91.56-1.38-.28.15-.55.31-.94.58-.36.32-.58.56-.8.78ZM509.04,86.88c-.07-.06-.21-.05-.3-.02-1.03.49-2.04,1.02-3.07,1.53,1.09-.35,2.19-.71,3.36-1.14.07-.2.06-.35,0-.37ZM557.48,209.44c-.33,0-.81-.18-.96-.03-.53.54-.95,1.18-1.42,1.79.31-.09.61-.16,1.06-.33.54-.53.93-.99,1.33-1.43ZM507.98,96.17c0,.09.09.19.14.27.71-.51,1.43-1,2.12-1.55.07-.06-.16-.51-.27-.77-.61.49-1.24.97-1.9,1.6-.07.24-.12.34-.08.45ZM499.51,269.95c-.44.26-.97.44-1.35.79-.49.46-.85,1.05-1.25,1.6.32-.27.64-.53,1.11-.92.59-.59,1.03-1.03,1.48-1.47ZM111.37,270.19c.31.35.58.75.94,1.06.91.78,1.87,1.5,2.8,2.26-.5-.6-.99-1.19-1.65-1.94-.79-.56-1.44-.96-2.09-1.37ZM626.36,446.77c.1.02.22.02.3-.01.97-.42,1.94-.84,2.89-1.28,0-.01-.16-.37-.24-.56-.94.48-1.88.96-2.91,1.53-.08.17-.09.33-.05.33ZM85.64,502.61c-1.35-1.17-2.71-2.32-3.97-3.4,1.39,1.19,2.67,2.29,3.97,3.4ZM289.32,217.52c-.27-.04-.54-.06-.81-.1.01.84.03,1.66.19,2.6.3-.76.46-1.64.62-2.5ZM466.19,301.24c-.04-.07-.23-.15-.28-.12-.86.57-1.72,1.14-2.54,1.78-.09.06.14.53.22.81.81-.63,1.62-1.28,2.51-2.04.08-.23.13-.35.09-.42ZM385.9,232.26c.15.08.43.25.44.24.67-.96,1.33-1.95,1.81-2.96-.85.89-1.55,1.81-2.25,2.72ZM5.44,120.32c-.12-.98-.21-1.97-.33-2.95-.33.7-.66,1.4-.95,2.28.46.33.86.5,1.27.67ZM528.27,482.48s-.13-.36-.19-.55c-.77.44-1.53.88-2.31,1.47.83-.2,1.67-.55,2.5-.93ZM425.19,445.95c-.09,0-.25.14-.24.15.44.95.9,1.89,1.35,2.83.25-.16.7-.4.68-.46-.33-.76-.74-1.5-1.3-2.35-.28-.12-.39-.18-.5-.16ZM536.29,80.66c.51-.07,1.05-.03,1.49-.2.98-.41,1.91-.93,2.87-1.4-.51.1-1.02.19-1.69.34-1,.46-1.84.87-2.66,1.27ZM439.66,363.44c.93,1.36,1.92,2.49,2.93,3.59.06.07.48-.2.73-.32-1.24-1.18-2.48-2.33-3.69-3.5.02.02.08,0,.03.24ZM476.64,290.08c.02-.1-.01-.21-.02-.31-.72.21-1.45.41-2.13.69-.08.03.14.68.22,1.05.52-.31,1.06-.61,1.69-1.05.13-.19.22-.28.24-.38ZM337.55,60.97c.18-.07.04-.76.05-1.16-.71.47-1.43.96-2.19,1.59.7,0,1.46-.12,2.14-.43ZM293.5,201.43c.41-.26.83-.52,1.23-.77-.44-.49-.87-.98-1.48-1.43-.02.76.12,1.47.25,2.19ZM365.56,165.76c-.62,1.53-1,2.93-1.3,4.34-.01.07.49.3.76.45.26-1.65.52-3.29.77-4.92,0,0,.05-.02-.23.13ZM548.18,156.49c.12.12.26.25.38.36,1.29-1.48,2.6-2.98,3.91-4.46.02,0,.23,0-.09.16-1.61,1.41-2.9,2.67-4.2,3.94ZM601.28,260.84c-.1,1.44-.21,2.63-.31,3.81.59-.71,1.43-1.33,1.68-2.16.12-.4-.89-1.19-1.4-1.84.02-.02.02-.08.03.18ZM378.78,265.89c.06-.09.13-.17.18-.27.49-1.3,1.02-2.59,1.45-3.93.09-.26-.27-.69-.43-1.04-.57,1.47-1.15,2.94-1.71,4.58.17.33.35.5.52.65ZM523.62,175.75c-.14.12-.04.52-.05.79,1.04-.53,2.06-1.06,3.08-1.57.01-.29.05-.57-.19-1.02-1.14.51-2.02,1.11-2.84,1.79ZM495.7,270.12c.2.07.55.22.59.16,1.23-1.73,2.43-3.49,3.62-5.25.07-.11-.08-.36-.14-.54-1.06,1.14-2.12,2.29-3.24,3.66-.3.79-.56,1.38-.83,1.98ZM371.57,542.39c-1.83,1.34-3.53,2.47-5.2,3.59.22.12.58.39.64.34,1.59-1.36,3.13-2.76,4.7-4.12,0,.04.02-.02-.14.2ZM615.04,374.1c.92.52,1.81,1.18,2.79,1.51.53.17,1.23-.23,1.86-.38-.88-.37-1.75-.74-2.82-1.11-.74,0-1.28-.03-1.83-.03ZM464.63,298.21c.44-.08,1.08,0,1.32-.26.87-1.01,1.62-2.15,2.4-3.25-.5.28-1.02.58-1.69.99-.78.95-1.4,1.73-2.03,2.52ZM75.45,499.58c.44.85.87,1.71,1.34,2.54.2.36.49.69.73,1.02.06-.84.12-1.7.13-2.71-.76-.4-1.49-.63-2.21-.85ZM69.56,490.07c-1.4-.61-2.55-1.17-3.75-1.62-.05-.02-.39.87-.6,1.35,1.52.12,3.05.23,4.53.35-.03,0,.03-.01-.18-.09ZM427.14,497.93c-1.36,1.69-2.49,3.32-3.58,4.96-.06.09.13.36.2.54.76-1.34,1.48-2.69,2.28-4,.37-.61.88-1.12,1.32-1.64,0,.03.02.1-.21.14ZM389.71,275.93c.09,1.63.11,3.27.29,4.89.02.22.7.43,1.07.63-.1-1.44-.19-2.88-.3-4.52-.35-.44-.71-.71-1.06-.99ZM89.32,214.7c-.04-.09-.15-.14-.23-.2-.7,1.16-1.46,2.28-2.03,3.5-.13.25.44.87.69,1.32.53-1.33,1.07-2.65,1.61-4.13,0-.27.01-.38-.04-.49ZM36.73,80.89c.05-.08.04-.3.03-.31-1.5-.4-3.01-.97-4.51-1.07-.7-.06-1.41.82-2.11,1.28,1.99.1,3.99.19,6.16.31.26-.08.38-.13.43-.21ZM595.57,272.72c-.28.13-.64.18-.84.39-1.39,1.33-2.76,2.69-4.13,4.05.69-.07,1.38-.15,2.24-.36,1.03-1.46,1.88-2.77,2.73-4.07ZM88.07,240.09c-.25,2.22-.39,4.21-.43,6.19,0,.06,1.2.2,1.84.32-.41-1.4-.91-2.79-1.22-4.2-.18-.83-.05-1.7-.11-2.53-.04.03.04,0-.08.23ZM552.71,152.4c1.84-2.84,3.68-5.7,5.74-8.74.22-.2.19-.11.2-.15-1.93,2.79-3.87,5.61-5.99,8.67-.14.22.06.22.06.22ZM544.03,402.61c2.53-1.47,4.87-2.74,7.23-4,.36-.2.71-.39,1.07-.6-.26-.07-.6-.29-.74-.18-2.59,1.64-5.16,3.34-7.74,4.97.02-.05,0,.02.18-.19ZM192.98,420.22c.28-.05.78-.11.78-.14-.26-2.24-.58-4.49-.97-6.58.01,2.34.1,4.52.19,6.72ZM371.19,329.24c-.06-.15-.51-.15-.77-.22.73,1.95,1.47,3.91,2.25,5.95.31.62.57,1.15,1.05,1.64-.69-2.49-1.59-4.93-2.53-7.37ZM349.8,311.46c-.18.42-.63.95-.51,1.29.67,1.88,1.49,3.73,2.28,5.59.03.04.38-.05.57-.07-.43-1.67-.86-3.36-1.4-5.21-.38-.66-.67-1.13-.95-1.59ZM15.61,80.95c-.06-.05-.23-.08-.29-.03-1.48.98-2.98,1.96-4.42,2.99-.05.04.22.53.34.83,1.4-1.08,2.79-2.17,4.29-3.37.1-.22.13-.35.08-.41ZM69.6,490.36c.47,2.63,1.02,5.06,1.65,7.48.04.19.55.3.84.46-.6-1.71-1.26-3.4-1.79-5.13-.3-.97-.36-2-.51-3.02-.01,0-.08,0-.19.21ZM425.94,466.57c.18-.03.51-.07.52-.11-.06-2.32-.16-4.65-.41-7.08-.14,2.33-.12,4.76-.11,7.19ZM455.67,457.05c.18,0,.41.08.5-.01,1.9-1.7,3.81-3.4,5.67-5.16.12-.12-.1-.59-.15-.89-1.59,1.24-3.19,2.48-4.91,3.89-.47.85-.79,1.49-1.11,2.16ZM403.95,385.64c-.56-.97-1.64-1.66-2.49-2.46,1.32,2.28,2.65,4.58,3.98,6.7-.47-1.52-.77-2.99-1.48-4.23ZM575.71,104.37c-.18.1-.51.16-.51.26-.13,3.1-.22,6.2-.27,9.3,0,.17.39.39.6.58.36-2.16.73-4.33,1.08-6.73-.3-1.29-.6-2.34-.9-3.41ZM632.35,391.14c.12-.73.21-1.47.33-2.2-1.72-.32-3.43-.64-5.15-.97.02-.02,0-.13.18.05,1.67,1.16,3.15,2.14,4.64,3.13ZM531.77,86.35c1.17-.69,2.12-1.33,3.07-1.97-1.45-.11-2.95-.4-4.35-.25-.94.09-1.77.82-2.65,1.28,1.28.34,2.57.67,3.82,1.01-.04,0-.11-.01.11-.07ZM270.52,239.49c.55-.44,1.08-.75,1.62-1.06-.46-.23-.96-.69-1.38-.66-1.93.16-3.82.46-5.71.75-.14.03-.19.5-.29.77,1.96.1,3.9.18,5.82.29-.03.01-.07.04-.06-.09ZM371.94,542.31c2.5-.49,4.79-1.05,7.07-1.67.07-.02-.07-.7-.1-1.07-1.89.73-3.76,1.45-5.63,2.17-.48.18-1.02.28-1.53.43,0,0-.01.07.2.14ZM578.27,128.03c-1.48,2.1-3,4.19-4.37,6.36-.24.38.11,1.16.2,1.74.51-.32,1.03-.65,1.53-1.16.86-2.42,1.76-4.68,2.65-6.94ZM187.6,452.38c.17,1.04,1.34,1.99,2.08,2.98-.24-1.91-.48-3.82-.8-5.91-.52.86-1.43,1.95-1.28,2.94ZM547,94.06c3.18-.34,6.34-.67,9.52-1.04.24-.03.45-.29.68-.42-1.75-.28-3.49-.59-5.47-.87-1.74.77-3.22,1.55-4.72,2.33ZM425.84,332.94c.16.07.46.23.49.2,1.82-2.34,3.64-4.66,5.4-7.05.1-.15-.23-.64-.36-.98-1.09,1.41-2.19,2.81-3.42,4.42-.79,1.25-1.45,2.34-2.11,3.41ZM326.01,234.55c-1.05.34-2.29.42-3.06,1.08-.86.73-1.31,1.97-1.93,2.98.87-.27,1.73-.56,2.78-.98.86-1.14,1.54-2.11,2.21-3.09ZM413.81,530.21c-.16-.07-.44-.24-.49-.18-2.02,1.9-4.02,3.81-5.98,5.76-.1.1.24.65.39,1.01,1.71-1.6,3.39-3.21,5.25-4.97.37-.63.6-1.11.83-1.62ZM319.95,79.48c.19-.46.06-1.06.09-1.6-.27,0-.76-.08-.8,0-1.23,3.95-2.41,7.89-3.55,11.68,1.46-3.46,2.9-6.76,4.26-10.09ZM270.44,239.83c-.83.54-1.5.93-2.23,1.1-.63.14-1.45-.16-1.98.13-.75.4-1.32,1.13-1.96,1.72,2.6-.27,5.23-.54,7.83-.81-.53-.78-1.07-1.56-1.59-2.33,0-.02.04-.05-.08.19ZM449.6,386.11c1.12.08,2.38.5,3.33.16,1.56-.59,2.92-1.67,4.37-2.54-1.43.07-2.87.13-4.41.35-1.17.77-2.23,1.4-3.29,2.03ZM637.86,389.47c-.9.28-1.8.56-2.69.84.9,1.57,1.83,3.15,2.87,4.6.04-1.91-.07-3.66-.18-5.43ZM465.53,492.91c-.97.15-1.98-.06-2.74.26-.57.25-1.12,1.15-1.13,1.79-.03,1.51.27,3.04.45,4.56,1.17-2.26,2.33-4.51,3.49-6.71,0,.05,0-.03-.08.1ZM58.67,465.67c-.33-1.84-.65-3.68-1-5.52-.11-.55-.42-1.07-.49-1.62-.35-2.71-.63-5.42-.93-8.13-.03,3.17-.06,6.34-.04,9.75.86,1.99,1.65,3.76,2.46,5.52ZM407.51,388.62c1.23,3.34,2.48,6.67,3.7,10,.28.76.4,1.56.75,2.28.49,1.03,1.13,2,1.7,2.99-.16-1.08-.31-2.14-.55-3.43-1.93-4.1-3.75-7.98-5.59-11.84ZM483.26,282.83c3.26-1.82,6.51-3.62,9.75-5.44.28-.15.58-.32.79-.54.38-.4.72-.86,1.06-1.29-.65.15-1.31.31-2.17.56-3.26,2.33-6.35,4.53-9.44,6.72ZM69.6,141.53c-.91-3.85-1.71-7.73-2.8-11.54-.37-1.26-1.42-2.37-2.17-3.55.48,1.24.98,2.46,1.54,3.92,1.19,3.88,2.32,7.53,3.43,11.17ZM387.38,94.91c-.27.38-.35.9-.51,1.37.3.02.8.19.88.06,2.62-4.38,5.22-8.78,7.67-13.08-2.78,3.96-5.43,7.8-8.04,11.65ZM222.13,326.77c-.15.57-.56,1.26-.37,1.71,1.47,3.3,3.05,6.54,4.63,9.81.01.03.35-.07.54-.1-.99-2.61-2-5.24-3-7.84-.17-.43-.32-.85-.55-1.49-.45-.84-.84-1.45-1.24-2.08ZM405.02,50.27c-.17.14-.16.05-.16.05-.19,1.56-.39,3.12-.76,4.76-.18.07-.2.03.02-.02,1.44-3.58,2.67-7.08,3.9-10.59-.93,1.89-1.89,3.79-3,5.81ZM326.31,77.62c-.02.91.33,1.87.53,2.79.44-.38,1.19-.68,1.27-1.13.37-2.39.54-4.81.81-7.22-.64.33-1.3.65-1.99,1.18-.25,1.59-.55,2.97-.61,4.38ZM642.1,405.85c.93-.08,2.31-.37,2.3-.48-.55-2.67-1.16-5.35-2.01-7.96-.21-.62-1.37-.99-2.09-1.47.23.97.5,1.92.65,2.89.35,2.33.64,4.66.97,6.98,0-.03-.01-.11.19.03ZM249.21,623.44c-.49-.73-1.25-2.17-1.45-2.09-3.2,1.01-6.34,2.21-9.49,3.38.15.18.35.54.45.52,2.18-.5,4.33-1.03,6.67-1.57,1.4-.1,2.62-.16,3.82-.24ZM558.87,143.62c2.82-2.33,5.54-4.6,7.94-7.18.91-.98,1.08-2.66,1.58-4.02-1.12.95-2.4,1.76-3.33,2.86-2.22,2.65-4.27,5.44-6.4,8.19.02,0-.01.09.21.15ZM427.84,334.35c-.51,1.76-.43,3.72-.59,5.6.32-.16.75-.2.96-.45.72-.94,1.57-1.85,1.96-2.94.58-1.6.59-3.45,1.23-5.03.66-1.6,1.77-2.98,2.68-4.45-1.18,1.28-2.36,2.54-3.73,4.02-1,1.19-2.16,2.07-2.5,3.25ZM44.46,83.14c.38.19.6.82.98.94,1.16.37,2.37.61,3.56.9-2.07-2.01-4.06-4.12-6.31-5.89-.35-.28-1.92,1.06-2.87,1.83,1.58.86,3.13,1.5,4.64,2.22ZM45.62,300.15c-.34,2.23-.24,4.56-.11,6.85.01.21,1.61.43,2.47.65-.07-3.53-.16-7.05-.21-10.59.02,0,.11-.03-.02.18-.83,1.11-1.97,1.91-2.12,2.91ZM290.66,188.2c.22-1.3.42-2.38.57-3.47.37-2.47.72-4.94,1.08-7.42-.85,2.33-1.82,4.63-2.52,7.02-1.3,4.4-2.45,8.84-3.64,13.29-.1.39-.03.82-.04,1.25.16-.1.4-.17.46-.32,1.37-3.41,2.71-6.84,4.07-10.22.01.03,0,.08.03-.13ZM308.3,136.67c.25-1.14.85-2.18,1.23-3.29-1.75,3.86-3.59,7.66-5.04,11.65-1.03,2.84-1.53,5.91-2.24,8.89,1.31-2.75,2.64-5.49,3.91-8.26,1.12-2.45,2.18-4.95,3.26-7.43-.39-.51-1.21-1.15-1.12-1.55ZM301.91,228.1c-.22.55-.8,1.21-.61,1.6.7,1.57,1.35,3.47,2.6,4.42.79.59,3.26.2,3.86-.62.79-1.08.5-2.99.68-4.54-1.58.25-3.14.49-4.9.61-.67-.59-1.15-1.02-1.62-1.46ZM405.68,206.65c-4.96,6.26-9.93,12.5-14.86,18.79-.17.22,0,.72,0,1.09.39-.16.92-.21,1.16-.51,4.73-5.97,9.44-11.99,14.21-18.15-.14-.53-.32-.87-.51-1.22ZM365.74,165.44c1.99-4.69,4.01-9.22,6-13.75.11-.23-.12-.65-.2-.97-.22.12-.58.18-.64.35-1.71,4.84-3.38,9.69-5.08,14.53.01,0-.04.03-.08-.17ZM555.94,139.3c-.37.55-.47,1.3-.7,1.94.6-.33,1.43-.48,1.78-.99,3.83-5.69,7.68-11.39,11.34-17.21.78-1.24.86-2.93,1.27-4.42-.87,1.25-1.73,2.49-2.72,3.96-3.75,5.7-7.38,11.2-10.97,16.71ZM156.2,303.38c-.39-.39-1.13-.44-1.72-.63.06.48-.05,1.16.22,1.44,4.13,4.18,8.32,8.32,12.52,12.43.21.21.68.13,1.03.2-.24-.51-.47-1.03-.85-1.73-3.79-4.04-7.45-7.9-11.19-11.7ZM578.82,381.07c1.08-.31,2.14-.62,3.42-.84,1.14-.19,2.08-.45,3.02-.74-.75.56-1.48,1.13-2.49,1.62-.15,0-.06.07.33.25,3.04-.57,5.83-1.19,8.55-1.99.52-.15,1.19-1.21,1.04-1.59-.27-.65-1.29-1.63-1.69-1.52-4.14,1.07-8.21,2.26-12.26,3.58-1.01.33-1.81,1.27-2.7,1.91,1.29.23,2.59.45,3.89.68-.37-.45-.73-.9-1.11-1.37ZM299.7,453.6c.09.47.33.94.5,1.41.12-.4.42-.81.34-1.16-1.66-8.1-3.38-16.2-5.11-24.3-.02-.07-.44-.1-.66-.14.12.43.22.87.38,1.51,1.53,7.7,3.01,15.19,4.54,22.68ZM180.44,336.91c.22.53.95.9,1.44,1.34.18-.35.63-.81.53-1.03-2.27-4.51-4.57-8.99-7.03-13.34,1.58,4.43,3.27,8.75,5.05,13.03ZM492.74,432.58c-1.35.08-2.81-.13-4.02.29-2.54.9-5.13,1.84-7.35,3.29-2.09,1.35-3.72,3.37-5.56,5.09,2.19-.96,4.37-1.9,6.55-2.87,2.36-1.06,4.7-2.16,7.27-3.36,1.17-.91,2.14-1.67,3.11-2.44ZM569.5,92.22c-.69.9-2.17,2.18-1.93,2.67,1.48,2.93,3.35,5.68,5.11,8.5.72-1.67,1.42-3.35,2.12-5.28-1.78-2.12-3.54-4-5.3-5.89ZM558.06,154.52c.25-.14.55-.22.73-.44,3.35-4.19,6.76-8.34,9.97-12.65.84-1.12,1.02-2.75,1.51-4.15-.79.93-1.52,1.93-2.4,2.76-2.42,2.27-4.92,4.46-7.58,6.84-.87,2.63-1.55,5.13-2.23,7.64ZM397.45,225.15c2.4-3.81,4.62-7.74,6.91-11.62-3.28,3.71-6.56,7.44-9.86,11.14-.5.57-1.21.98-1.58,1.62-1.92,3.37-3.75,6.76-5.62,10.16.29.1.78.35.84.28,2.2-3.04,4.36-6.12,6.65-9.4.99-.86,2.13-1.32,2.66-2.18ZM90.76,169.66c.56-1.03,1.7-2.08,1.58-3.09-.9-7.67-2.02-15.34-3.13-23-.06-.36-.45-.69-.68-1.06-.24.54-.73,1.07-.7,1.61.42,7.93.91,15.87,1.36,23.78-.02-.02-.05-.18-.03.06.55.74,1.08,1.23,1.6,1.71ZM81.8,141.82c.37-.29,1.11-.62,1.08-.87-.94-6.16-1.86-12.33-3.06-18.47-.12-.65-1.91-1.11-2.92-1.64-.1.96-.49,1.98-.26,2.87,1.19,4.92,2.51,9.82,3.84,14.95.47,1.21.89,2.18,1.32,3.16ZM427.42,498.04c-.84,4.06-1.75,7.9-2.67,11.76-.37,1.56-.73,3.1-1.09,4.66,1.98-1.8,5.16-3.24,5.69-5.48,1.3-5.5,1.34-11.39,1.98-17.11.32-2.74.86-5.45,1.24-8.18.06-.47-.16-1-.26-1.49-.22.45-.5.9-.65,1.37-1.45,4.77-2.87,9.54-4.31,14.31,0-.01-.02-.07.06.15ZM510.35,491.04c-11.29,1.89-22.59,3.77-34.03,5.8-.15.14-.18.1.06.17,2.5-.16,4.86-.13,7.03-.69,5.68-1.46,7.23-.77,7.6,3.57.05.6,1.89,1.66,2.82,1.62,2.16-.09,4.27-.7,6.42-1.11-.97-.44-1.91-.93-2.88-1.3-1.34-.49-2.72-.89-4.08-1.33,1.48-.86,2.85-1.95,4.44-2.54,4.17-1.55,8.43-2.9,12.65-4.29-.03.06-.02.1-.02.1ZM280.04,475.03c-3.2,1.47-6.44,3.34-8.74,5.88-1.57,1.73-1.58,4.88-2.29,7.4.81-.17,1.81-.1,2.4-.55,4.55-3.54,9.02-7.18,13.55-10.92-1.63-.76-3.8-2.33-4.92-1.81ZM536.04,162.97c-.53,1.13-1.08,2.27-1.76,3.58-.16.17-.17.12.06.13,3.94-1.41,7.79-2.54,11.32-4.28,3.27-1.61,6.21-3.84,9.24-5.86.05-.04-.64-1.29-.67-1.27-4.57,1.85-9.1,3.76-13.63,5.67-1.58.66-3.13,1.39-4.67,2.08.05-.02.11-.05.11-.05ZM382.62,116.45c-.31.66-.8,1.27-.92,1.98-1.14,6.8-2.25,13.62-3.28,20.44-.1.61.44,1.34.68,2.03.69-.31,1.81-.46,1.98-.97,2.08-6.33,4.03-12.72,6.01-19.31-1.49-1.55-2.97-2.85-4.46-4.16ZM277.74,399.53c1.4,1.2,2.79,2.44,4.14,3.71,2.14,2.02,4.23,4.08,6.34,6.11-1.04-2.48-1.97-5.02-3.19-7.43-.82-1.58-1.78-3.43-3.18-4.33-2.26-1.48-4.96-2.24-7.41-3.44-.79-.4-1.36-1.3-2.08-1.9-.1-.08-.75.3-.73.36.94,3.17,1.27,6.75,3.09,9.37,2.85,4.11,6.68,7.57,10.13,11.3.01,0,.35-.23.35-.23-2.15-3.23-4.35-6.46-6.49-9.7-.57-.86-1.01-1.8-1.59-2.92.18-.45.6-.92.62-.9ZM493.25,452.35c-.03-.3-.04-.61-.08-.91-.42.57-.85,1.15-1.27,1.72.36-.2.72-.41,1.34-.81ZM528.98,428.27c.21-.48.41-.95.62-1.43-.37-.08-.75-.17-1.12-.25.06.56.12,1.12.5,1.68ZM501.34,450.14c-.51.34-1.02.68-1.54,1.01.46.14,1.2.52,1.35.36.32-.35.35-.98.19-1.36ZM584.86,409.14c-.44.32-.86.63-1.3.95.35-.04.77.05,1-.12.37-.26.58-.7.86-1.04-.1,0-.2.03-.57.21ZM576.47,416.84c-.77.35-1.55.7-2.34,1.04.17.23.33.44.5.68.65-.46,1.3-.93,1.84-1.72ZM569.23,413.16c.02-.1.08-.22.05-.28-.03-.06-.22-.12-.26-.07-.78.7-1.56,1.4-2.33,2.13-.01.01.21.28.32.44.68-.67,1.35-1.34,2.22-2.22ZM564.59,415.52c-.86.8-1.74,1.62-2.58,2.44-.02.02.22.32.34.49.77-.84,1.55-1.67,2.24-2.93ZM486.79,480.36c.68,0,1.34,0,2.02-.01-.23-.48-.46-.97-.68-1.46-.51.38-1,.75-1.34,1.47ZM499.67,442.06c-.81-.02-1.63-.05-2.43,0-.06,0-.04.68-.05,1.04.76-.24,1.51-.46,2.48-1.04ZM521.22,451.55c.36-.34.72-.68,1.08-1.02-.77-.03-1.57-.16-2.32-.03-.45.07-.81.53-1.2.81.7.13,1.39.25,2.44.25ZM510.46,455.71c-.89.42-1.78.86-2.67,1.28.49.12,1.15.49,1.45.3.62-.37,1.06-1.04,1.22-1.58ZM486,472.86c.84.04,1.87.38,2.45.02.75-.44,1.13-1.46,1.67-2.2-1.47.67-2.94,1.34-4.12,2.18ZM486.75,486.55c.96-.61,1.93-1.19,2.87-1.83,0-.01-.35-.64-.38-.63-1.39.5-2.77,1.04-4.15,1.57.41.27.82.52,1.66.88ZM487.75,448.6c1.05-.4,2.12-.8,3.17-1.19-.85-.44-1.68-.88-2.52-1.32-.32.77-.66,1.52-.65,2.52ZM497.84,483.47c.09-.52.16-1.06.25-1.58-1.09.37-2.19.68-3.22,1.16-.21.09-.14.74-.19,1.15.95-.15,1.89-.29,3.17-.72ZM583.21,400.12c-1.16.53-2.34,1.04-3.47,1.61-.44.22-.8.6-1.18.9.45.03,1.01.22,1.36.05,1.73-.82,3.38-1.75,5.08-2.63-.47-.03-.93-.04-1.8.07ZM494.67,479.55c.36-.5.73-.97,1.09-1.47-.62-.28-1.64-.95-1.8-.78-1.02,1.05-1.86,2.29-2.76,3.48,1.05-.42,2.11-.83,3.47-1.23ZM465.83,475.95c-.2-1.22-.41-2.46-.6-3.68-.45.37-1.12.63-1.3,1.12-.38.98-.5,2.09-.71,3.14.79-.05,1.6-.1,2.62-.58ZM551.03,415.6c2.67-1.28,5.34-2.54,7.99-3.87.29-.14.35-.7.52-1.06-1.52.71-3.1,1.35-4.56,2.16-1.31.7-2.51,1.63-3.94,2.76ZM577.58,396.75c-2.96,1.84-5.91,3.68-8.85,5.55-.03.01.26.49.4.75,2.56-1.49,5.11-2.99,7.67-4.48.56-.32,1.18-.53,1.72-.88.69-.43,1.32-.97,1.96-1.46-.8.14-1.62.27-2.9.51ZM505.81,454.69c-.36.4-.71.79-1.07,1.19.46-.03,1.01.09,1.39-.11,3.03-1.58,6.02-3.22,9.03-4.84-3,1.18-5.99,2.36-9.34,3.76ZM588.94,458.01c-1.65,1.14-3.29,2.27-4.92,3.44,0,.01.43.72.48.7,1.99-.78,3.99-1.54,5.92-2.43,2.47-1.13,4.96-2.26,7.29-3.62.71-.42.98-1.56,1.45-2.36-.36-.04-.8-.23-1.08-.1-2.89,1.34-5.79,2.73-9.14,4.37ZM554.04,404.17c-1.39,1.6-2.77,3.22-4.15,4.81,1.72-.64,3.45-1.27,5.16-1.94.81-.32,1.75-.56,2.35-1.13,2.41-2.34,4.7-4.78,7.04-7.19-2.51,1.35-5.03,2.69-7.55,4.04-.77.41-1.55.8-2.84,1.42ZM578.01,389.14c-2.6.83-5.35,1.37-7.74,2.58-1.09.54-1.47,2.39-2.17,3.65,1.08-.06,2.33.2,3.22-.23,2.73-1.31,5.36-2.83,7.98-4.35,1.13-.65,2.17-1.47,3.25-2.22-1.34.14-2.69.3-4.53.55ZM476.2,457.45c-1.47.26-3.02.33-4.39.8-1.58.56-3.05,1.43-4.47,2.32-.26.15-.06,1-.07,1.54,6.92-2.12,13.85-4.19,20.66-6.56.33-.11-.4-3.03-.86-4.6-.05-.2-1.59-.45-2.02-.13-2.84,2.03-5.59,4.22-8.84,6.63ZM471.65,471.8c1.14-2.3,2.28-4.57,3.35-6.91.02-.05-.96-.6-1.48-.91-.5,1.87-.97,3.75-1.52,5.61-.24.81-.64,1.55-1.18,2.62-.51,1.39-1.02,2.77-1.5,4.16-.45,1.32-.86,2.64-1.28,3.96,1.29-.6,3.54-.99,3.67-1.84.28-2.08-.41-4.37-.08-6.69ZM485.01,461.33c2.57-1.18,5.17-2.35,7.72-3.59.65-.32,1.21-.86,1.79-1.3-.33-.15-.8-.53-.98-.42-3.04,1.74-6.02,3.53-9.38,5.15-.72.13-1.43.29-2.15.42.21.33.43.66.64.99.63-.46,1.25-.91,2.36-1.26ZM619.12,432.42c-1.46,1.35-2.93,2.71-4.4,4.05.17.06.43.21.47.15,1.49-1.46,2.97-2.93,4.72-4.09,1.06-.61,2.13-1.18,3.15-1.86.16-.11.04-.62.04-.93-1.14.88-2.28,1.73-3.98,2.69ZM543.86,402.83c-4.81,4.21-9.74,8.29-14.36,12.7-1.62,1.55-2.5,3.86-3.73,5.83,1.66-.93,3.26-1.97,5-2.78,1.37-.65,2.89-1.04,4.36-1.54-.89.9-1.79,1.81-2.63,2.75-.18.19-.06.64-.08.96,1.95-.52,4.37-.48,5.78-1.64,2.88-2.4,5.24-5.43,7.78-8.21,1-1.09,1.89-2.27,2.82-3.41-1.82.21-3.7.26-5.46.68-1.54.37-2.97,1.14-4.44,1.75,1.25-.89,2.4-1.95,3.77-2.67,6.47-3.43,13.15-6.53,19.44-10.25,4.6-2.72,8.41-6.76,13.13-9.22,5.56-2.88,11.71-4.69,17.63-6.95.25-.09.6.11.91.1,2.18-.04,5.01.76,6.45-.27,9.91-7.13,17.14-.12,24.72,5.73.69.54,1.55.84,2.49,1.39.14.15.12.04.12.04-3.39-.08-6.79-.22-10.17-.14-.28,0-.41,1.52-.62,2.34.83.04,1.79-.16,2.51.17,2.83,1.26,5.61,2.68,8.4,4.05-.71.85-1.42,1.72-2.13,2.57-.24-.49-.36-1.17-.73-1.42-.47-.3-1.41-.53-1.7-.27-.94.82-1.67,1.87-2.47,2.82,3.4,2.52,6.79,5.04,10.2,7.54.58.43,1.25.75,1.84,1.17.98.67,1.94,1.39,2.9,2.08.76-1.16,1.66-2.25,2.22-3.52.59-1.3.85-2.77,1.24-4.17.9,1.48,1.8,2.95,2.8,4.58.11.15.1.08.1.08-1.89,7.42-2.22,15.91-6.12,21.95-3.49,5.41-11.09,7.91-16.48,12.2-1.54,1.23-1.18,4.57-2.54,6.26-1.98,2.45-4.4,4.84-7.18,6.29-6.43,3.33-13.09,6.33-19.86,8.96-5.46,2.13-11.26,3.52-17.01,5.14-.73-.47-1.42-1.22-1.96-1.14-.73.1-1.34.83-2,1.29,1.25,0,2.48-.02,3.72-.02-5.07,2.47-10.14,4.95-15.21,7.4-.24.12-.61-.02-.92-.03.13-.25.23-.53.35-.76.74-1.41,1.5-2.82,2.26-4.22-1.18,1.08-2.32,2.24-3.56,3.25-2.57,2.09-5.32,4-7.78,6.22-1.04.94-1.53,2.48-2.26,3.74,1.07-.72,2.09-1.54,3.23-2.12.81-.41,1.8-.5,2.96-.81.25-.07.22.02.22.02-3.7,3.05-7.38,6.13-11.12,9.15-.45.37-1.18.39-1.79.57.02-.2-.03-.48.08-.59,1.58-1.37,8.18-3.42-.68-3.31-.01-1.35-.54-3.59.05-3.93,12.7-6.92,25.53-13.62,38.67-20.38,4.15-1.77,8.05-3.34,11.68-5.37,1.73-.97,2.94-2.84,4.38-4.31.37-.39.68-.85,1.01-1.28-.43-.27-1.11-.9-1.26-.78-5.31,3.83-10.58,7.72-15.85,11.6-1.51-10.08-1.78-10.16-11.85-3.8-.45.29-1.19.18-1.79.26-.08-1.03-.23-2.06-.22-3.08,0-.94.2-1.87.21-2.81,0-.08-1.1-.39-1.14-.33-.38.86-.71,1.76-.95,2.67-.27,1.05-.18,2.28-.71,3.16-1.21,2.04-2.69,3.93-4.07,5.88.35-2.03.68-4.05,1.11-6.52.32-1.89.57-3.33.82-4.77-1.65.23-3.29.46-4.94.67,1.43,1.37,2.84,2.72,4.25,4.1-18.37-1.56-21.95,15.66-32.2,24.45-4.54,3.9-9.77,6.99-14.93,10.43-.24-.02-.24.03-.05-.12,2.15-1.42,4.11-2.68,6.06-3.95-2.21.49-4.41.99-6.63,1.47-.64.13-1.3.27-1.97.31-3.52.26-7.27-1.97-8.29-4.9-.4.13-.95.12-1.17.4-5.06,6.5-12.67,6.27-20.09,6.37-2.08.04-4.66-1.49-6.21-.76-1.21.57-1.17,3.51-1.69,5.41,1.87.6,3.73,1.19,5.6,1.77-.01-.03-.03-.08-.03-.08-3.4-1.26-6.8-2.54-10.38-3.92-.18-.12-.18-.22-.18-.22,1-1.24,3.03-2.61,2.82-3.72-.6-3.3-1.83-6.6-3.34-9.67-.53-1.08-2.67-2.03-3.97-2-.9.02-1.63,1.85-2.43,2.87.04-2.18.02-4.38.14-6.56.06-.96.4-1.87.63-2.81-.73.85-1.42,1.76-2.21,2.54-1.64,1.62-3.33,3.18-5.02,4.76.58-2.04.72-4.39,1.82-6.05,2.09-3.15,5.01-5.73,7.07-8.9,1.63-2.51,1.69-6.85,3.87-8.13,11.5-6.78,24.15-11.88,35.03-19.43,10.3-7.15,18.67-16.93,28.43-24.91,4.3-3.52,9.93-5.44,15.21-8.05.27.04.25.1.25.1ZM562.12,288.92c-.35.39-.68.77-1.03,1.16.31.11.61.2.92.31.13-.53.26-1.03.12-1.47ZM481.65,307.28c.24-.32.48-.64.69-.96-.76.36-1.52.69-2.28,1.04.43.05.86.08,1.59-.08ZM510.6,262.25c-.27.51-.55,1-.82,1.51.71-.34,1.42-.69,2.13-1.03-.35-.25-.71-.47-1.31-.48ZM518.63,320.28c-.46-.45-.92-.92-1.39-1.38-.22.34-.42.69-.63,1.03.59.18,1.17.35,2.03.35ZM523.4,281.24c-.36.57-.73,1.15-1.09,1.72.37.03,1.01.19,1.08.06.22-.54.28-1.18.02-1.78ZM504.54,285.55c-.35.45-.69.9-1.04,1.34.44-.06,1.06.06,1.29-.18.49-.53.78-1.26,1.16-1.91-.37.19-.74.41-1.42.75ZM447,346.15c.55-.27,1.08-.53,1.63-.8-.44-.24-.88-.47-1.32-.71-.24.5-.46.99-.31,1.51ZM550.06,254.42c-.81.73-1.62,1.45-2.41,2.2-.02.02.18.29.29.45.79-.81,1.58-1.61,2.12-2.65ZM526.36,307.66c.73-.64,1.44-1.27,2.17-1.91-.2-.22-.4-.44-.6-.66-.65.72-1.28,1.44-1.57,2.56ZM452.11,324.48c.35.52.71,1.05,1.07,1.57.34-.5.67-.98,1.01-1.47-.65-.15-1.28-.3-2.08-.09ZM561.95,286.49c.11-.46.23-.92.34-1.38-.79.37-1.62.67-2.35,1.13-.28.17-.31.7-.45,1.08.69-.19,1.38-.37,2.46-.82ZM437.25,330.46c-.07.2-.16.4-.21.62-.01.09.07.21.1.32.7-.56,1.45-1.08,2.1-1.7.11-.11-.11-.58-.16-.88-.55.44-1.12.9-1.83,1.64ZM475.54,357.66c-.09.18-.2.35-.27.55-.03.06.06.17.09.25,1.26-.46,2.52-.91,3.77-1.4.11-.03.04-.44.06-.68-1.12.34-2.22.68-3.65,1.28ZM603.37,219.93c.21-.76.49-1.5.6-2.28.01-.09-.9-.37-1.37-.57.11.94.22,1.88.78,2.86ZM463.18,336.4c-.61.16-1.21.33-1.83.5.51.57,1.02,1.14,1.52,1.72.24-.71.46-1.43.31-2.22ZM518.79,271.06c-.54.5-1.06.98-1.6,1.47.47.06,1.14.35,1.36.15.68-.62,1.18-1.44,1.75-2.18-.39.1-.79.19-1.51.56ZM479.34,299.84c.44-.71.9-1.43,1.33-2.14-.77.52-1.73.92-2.27,1.62-.85,1.07-1.44,2.37-2.13,3.57.9-.92,1.79-1.81,3.07-3.05ZM487.85,297.16c-.07.08-.14.17-.18.27s-.05.21-.08.31c1.42-.1,2.85-.19,4.27-.35.06,0,.02-.64.02-.99-1.25.16-2.5.33-4.04.75ZM474.3,303.89c-.89.23-1.79.45-2.69.69.16.37.3.73.46,1.1.74-.47,1.49-.95,2.23-1.79ZM471.13,346.2c-1.15.71-2.31,1.42-3.45,2.13.46.11,1.12.47,1.34.29.89-.74,1.66-1.64,2.11-2.42ZM449.86,359.6c-.72.55-1.43,1.09-2.14,1.63,1.01.34,2.01.67,3.02,1-.14-.86-.25-1.74-.88-2.63ZM442.42,345.13c-.69-.44-1.37-.89-2.05-1.32-.16.58-.31,1.15-.47,1.73.81-.02,1.62-.03,2.52-.41ZM527.05,284.7c.75-.17,1.49-.34,2.24-.5-.71-.79-1.43-1.58-2.13-2.37-.14.86-.29,1.7-.11,2.87ZM521.42,265.03c0-.53-.02-1.06-.03-1.6-.98.61-1.99,1.18-2.91,1.85-.21.16-.11.74-.15,1.14.93-.35,1.87-.73,3.1-1.39ZM512.03,277.95c-.95.93-1.91,1.86-2.81,2.85-.07.08.31.59.49.91.88-1.19,1.75-2.37,2.32-3.76ZM472.84,342.22c-.76.69-1.52,1.38-2.28,2.07.98-.22,2.06-.23,2.89-.69,1.04-.58,1.87-1.53,2.79-2.33-.99.25-1.97.51-3.39.96ZM554.38,288.41c-.2.83-.39,1.66-.57,2.5.55-.05,1.31.11,1.6-.19.78-.85,1.36-1.88,2.02-2.85-.89.13-1.79.26-3.04.55ZM455.18,334.55c-.47,1.02-.93,2.06-1.4,3.08.84-.41,1.93-.61,2.44-1.29.55-.73.54-1.89.76-2.86-.54.23-1.07.48-1.81,1.07ZM482.98,344.18c.16.58.32,1.17.48,1.75,1.47-1.7,2.94-3.41,4.39-5.13.05-.06-.15-.33-.23-.52-1.48,1.18-2.96,2.33-4.64,3.9ZM483.05,353.79c-.21.56-.45,1.12-.66,1.68,1.21-.31,2.52-.44,3.6-.97.61-.3.88-1.26,1.29-1.92-1.27.36-2.56.72-4.23,1.21ZM542.79,260.21c1.21-1.33,2.43-2.68,3.64-4.01-.29-.25-.58-.51-.87-.76-.99,1.47-1.98,2.94-2.78,4.77ZM548.95,233.66c-.49.39-.99.78-1.47,1.16.55.11,1.26.46,1.6.26,2.09-1.25,4.1-2.64,6.1-4.02.05-.04-.25-.55-.37-.83-1.82,1.04-3.65,2.09-5.86,3.43ZM556.08,296.52c-.09-1.36-.17-2.72-.26-4.08-2.19,2.36-4.39,4.71-6.55,7.1-.09.11.19.53.29.81,2.16-1.16,4.31-2.31,6.52-3.83ZM463.84,314.87c1.63-2.14,3.26-4.26,4.88-6.4-2.34,1.8-4.71,3.57-7.01,5.42-.55.44-.87,1.18-1.31,1.77,1.01-.15,2.02-.31,3.43-.79ZM501.07,292.16c.99-1.2,1.96-2.39,2.95-3.58-1.1-.33-2.86-1.22-3.16-.88-1.26,1.51-2.07,3.4-3.04,5.15.95-.15,1.9-.3,3.25-.68ZM598.07,224.65c-1.15,1.74-2.3,3.47-3.39,5.24-.07.11.49.61.75.92,1.44-1.37,2.96-2.67,4.24-4.18.2-.2-.79-1.42-1.6-1.98ZM525.79,302.65c2.02-1.21,4.07-2.38,6.03-3.71.18-.13-.31-1.23-.49-1.87-1.89,1.71-3.76,3.42-5.54,5.58ZM446.97,353.27c-.88-.13-1.92-.62-2.58-.32-1.53.7-2.87,1.79-4.27,2.73.86,1.01,1.73,2.04,2.59,3.05,1.53-1.75,3.06-3.51,4.26-5.46ZM485.83,356.95c-.35.88-.71,1.76-1.06,2.64,1.1-.75,2.2-1.48,3.3-2.23,1.24-.85,2.83-1.45,3.63-2.62,1.23-1.75,1.9-3.9,2.81-5.86-2.78,2.54-5.57,5.1-8.68,8.08ZM456.47,328.13c-2.27.93-4.54,1.87-6.81,2.8.87.7,2.2,2.19,2.55,2,3.66-1.92,7.16-4.12,10.68-6.28.24-.15.16-.74.23-1.12-2.03.81-4.09,1.64-6.65,2.6ZM538.73,266.84c-1.51,1.88-3.13,3.69-4.51,5.68-1.06,1.53-1.79,3.3-2.67,4.95,1.63-.99,3.34-1.89,4.87-3,2.01-1.46,4-2.98,5.75-4.72.66-.65.65-2,.94-3.03-.82.5-1.65.98-2.44,1.53-.49.34-.89.78-1.34,1.19.09-.72.19-1.43.25-2.15.03-.31,0-.63,0-.95-.15.14-.33.27-.85.5ZM530.78,264.42c.17,1.28.34,2.56.52,3.83,1.2-1.42,2.35-2.9,3.62-4.25.54-.57,1.42-.81,1.97-1.37,2-2.02,3.93-4.1,5.86-6.19.19-.22.11-.68.15-1.02-1.82.69-3.71,1.23-5.42,2.1-3.21,1.64-6.4,3.31-9.42,5.23-3.07,1.95-5.94,4.21-8.89,6.33,3.76-1.53,7.54-3.06,11.62-4.67ZM494.66,347.1c1.07-.76,2.41-1.3,3.09-2.32,1.24-1.84,2.07-3.97,3.08-5.98-1.71-.74-3.37-1.79-5.12-2.11-.75-.15-2.05.95-2.44,1.83-.39.91.49,2.86-.03,3.25-5.63,4.2-11.42,8.18-17.15,12.25-.5.35-.79.98-1.17,1.48.7-.06,1.47.04,2.07-.22,5.78-2.55,11.54-5.19,17.66-8.16ZM523.94,315.54c3.13-1.07,6.41-1.86,9.36-3.27,3.61-1.74,7.21-3.68,10.31-6.16,1.7-1.35,2.14-4.15,3.55-6,1-1.32,2.8-2.01,3.99-3.22.65-.66.8-1.82,1.17-2.77-.95.1-2.08-.06-2.85.35-5.19,2.8-10.35,5.67-15.38,8.74-.27.16.51,2.23,1.08,3.29.19.35,1.16.32,1.79.47-.74.55-1.39,1.31-2.23,1.64-4.26,1.74-8.58,3.35-12.83,5.1-.41.16-.53,1-.77,1.51.79.2,1.59.37,2.81.31ZM513.23,304.5c.75-.36,1.52-.73,2.26-1.1-.01.29.11.72-.04.84-.98.73-2,1.45-3.04,2.07-2.04,1.18-4.12,2.3-6.19,3.44,1.41-.36,2.83-.74,4.24-1.08.17-.04.4.07.6.11-.27.43-.47.92-.82,1.26-4.47,4.45-9.06,8.8-13.41,13.37-1.36,1.41-2.09,3.43-3.11,5.15,1.07.49,2.79,1.66,3.13,1.36,4.4-4.07,8.37-8.58,12.92-12.48,4.05-3.49,9.38-5.7,12.72-9.7,1.96-2.33,1.12-7.07,1.48-10.75.03-.23-.75-.84-.79-.81-3.49,2.74-6.93,5.49-9.96,8.33ZM530.16,245.83c-.81.77-1.63,1.53-2.39,2.33-.02.02.34.43.53.66.77-1.13,1.54-2.25,2.4-3.83,6.47-6.54,12.95-13.09,19.39-19.66.34-.35.48-.91.72-1.39-.48.18-1.08.24-1.43.57-4.07,3.88-7.97,7.94-12.19,11.65-2.18,1.92-5.02,3.08-7.34,4.86-2.16,1.65-4.04,3.69-6.03,5.56,2.26-.39,4.53-.77,6.34-.75ZM472.08,313.3c-.95.74-2,1.35-2.81,2.22-2.13,2.25-4.14,4.6-6.2,6.91,2.08-1.66,4.3-3.16,6.2-5.01,1.26-1.22,2.07-2.91,3.58-4.69,5.55-3.54,11.12-7.07,16.65-10.63.35-.23.49-.75.73-1.15-.54-.02-1.17-.23-1.56-.02-5.71,3.12-11.49,6.15-17.01,9.54-2.8,1.71-5.17,4.09-7.72,6.17,2.82-1.18,5.68-2.39,8.13-3.33ZM492.7,357.59c-1.71,1.05-3.43,2.07-5.14,3.12,1.33-.08,2.65-.15,3.98-.23-2.43,1.62-4.84,3.24-7.44,4.8.43-.64,1.03-1.2,1.62-1.77-.42-.16-.83-.34-1.26-.5-.21.9-.42,1.79-.63,2.67-1.36,1.37-2.72,2.74-4.08,4.13,2.49-1.25,4.98-2.48,7.44-3.75.74-.37,1.38-.9,2.06-1.36.1.95.64,2.41.23,2.75-2.61,2.14-5.42,4.04-8.16,6.01-1.07-1.91-2.14-3.81-3.19-5.71-.15-.26-.22-.56-.34-.83-1.39.75-2.8,1.49-4.3,2.45-.11.21-.04.2-.04.2-2.82,2.05-5.38,4.57-8.51,5.99-2.56,1.17-5.77,1.06-8.71,1.43-.17.02-.75-.76-.69-1.05,1.41-7.19-4.98-14.49-13.02-14.63-.88-.01-1.7,1.04-2.71,1.75-.16.15-.1.15-.1.15-1.25-6.19-2.48-12.38-3.73-18.57-.03-.16-.24-.29-.36-.43-.29.41-.68.79-.86,1.26-1.47,4-2.85,8.02-4.35,12.02-.47,1.22-1.23,2.31-1.86,3.46-.5-1.71-1.89-3.87-1.35-5.06,2.42-5.33,5.38-10.38,8.15-15.53.36-.66.62-1.38.94-2.07-.55.34-1.05.79-1.66.99-.32.1-.8-.21-1.2-.32,2.62-4.85,5.25-9.7,7.87-14.55.66,1.02,1.56,1.99,1.89,3.1.22.73-.4,1.65-.64,2.48,1.49-1.6,2.9-3.31,4.5-4.78,5.1-4.69,10.31-9.25,15.42-13.92,4.34-3.96,8.68-7.91,12.89-12.01,5.83-5.64,11.79-11.18,17.21-17.21,5.74-6.37,10.74-13.41,16.38-19.87,3.14-3.61,7-6.56,10.36-9.97.53-.54-.12-2.15.32-2.94,1.05-1.89,2.12-3.95,3.7-5.33,12.91-11.11,25.95-22.07,38.97-33.05.41-.34,1.12-.32,1.7-.47-.39.32-.82.62-1.2.97-1.68,1.5-3.32,3.09-5.06,4.52-2.55,2.09-5.2,4.08-7.8,6.13.21.21.51.61.6.58,3.67-1.64,7.64-2.88,10.9-5.11,7.08-4.82,13.78-10.13,20.63-15.27.49-.36.81-.93,1.2-1.4-1.05-.49-2.09-.95-3.14-1.44,3.33-1,6.68-2.02,10.01-3.02.17.53.65,1.37.47,1.54-1.63,1.53-3.35,2.94-5.05,4.38-.15.14-.25.33-.37.51,3.68,2,7.35,4.03,11.04,5.99.44.24.99.29,1.48.42-.52.18-1.03.35-1.56.54-.78.28-1.57.57-2.34.85.28.6.48,1.59.88,1.72.81.26,1.87-.23,2.61.09,3.64,1.65,7.22,3.51,10.85,5.22,2.76,1.32,1.59,11.4,8.34,4.19.44-.47,3.2.19,3.3.61.56,2.34.63,4.75.87,7.15-.71-.77-1.87-2.28-2.02-2.2-2.07,1.25-4.67,2.3-5.8,4.24-1.53,2.63-1.92,6.01-2.79,9.05,1.86-2.72,3.71-5.46,5.63-8.13.07-.08,1.42.51,1.4.69-.09,1.17-.19,2.41-.66,3.44-3.17,7-6.34,13.99-9.79,20.82-.29.58-2.58.05-3.95.01-.43,0-1.2-.2-1.22-.13-.23,1.02-.36,2.06-.35,3.15.16.05.16,0,.16,0-11.05,9.09-22.28,17.98-33.13,27.31-14.37,12.38-28.47,25.09-42.63,37.71-6.57,5.85-13.16,11.71-19.47,17.85-4.55,4.42-8.66,9.32-13,13.93.86-1.28,1.88-2.41,2.64-3.72.76-1.32,1.28-2.79,1.91-4.2-1.63,1.8-3.36,3.53-4.81,5.46-.39.56-.03,1.75-.04,2.65ZM338.73,196.32c.67-.51,1.34-1.01,1.96-1.58.04-.03-.39-.59-.6-.9-.44.67-.9,1.33-1.36,2.47ZM314.66,217.73c-.06-.56-.12-1.14-.18-1.71-.64.35-1.27.69-1.92,1.04.58.29,1.14.59,2.1.67ZM341.11,77.91c.29-.85.59-1.71.85-2.57,0-.01-.32-.16-.5-.24-.16.86-.34,1.72-.35,2.81ZM316.09,167.72c-.01-.72-.01-1.43-.02-2.15-.32.2-.87.32-.92.58-.15.87-.12,1.76-.14,2.65.31-.26.62-.5,1.09-1.08ZM324.87,198.61c-.02-.22,0-.44-.05-.65,0-.09-.15-.16-.23-.23-.27.77-.57,1.54-.74,2.34-.03.19.35.5.55.76.14-.64.28-1.25.47-2.23ZM353.36,34.42c-.02-.76-.04-1.51-.05-2.27-.48.6-.97,1.17-1.45,1.77.43.27.86.55,1.5.49ZM328.16,212.44c1.27-.4,2.54-.78,3.81-1.18-.13-.3-.25-.6-.39-.89-1.1.58-2.19,1.15-3.42,2.06ZM312.74,207.26c-.05-.79-.08-1.59-.14-2.38-.28.39-.7.74-.78,1.19-.19.97-.21,2-.29,3,.36-.48.73-.93,1.2-1.81ZM397.58,61.5c.73,0,1.48.05,2.19-.03.06,0,0-.74,0-1.16-.74.29-1.48.56-2.2,1.19ZM319.47,193.51c-.75.52-1.54.99-2.21,1.57-.14.12.12.69.18,1.05.66-.77,1.34-1.54,2.03-2.62ZM320.33,184.06c0,.75.02,1.52.03,2.27.52-1.06,1.14-2.1,1.52-3.21.16-.5-.13-1.19-.2-1.78-.41.75-.83,1.54-1.35,2.72ZM322.97,140.59c-.06.49-.1.98-.16,1.47.9-.97,1.86-1.89,2.65-2.95.22-.3-.09-1-.15-1.5-.69.88-1.38,1.79-2.34,2.98ZM394.71,15.88c.51-1.29,1.03-2.58,1.48-3.9.05-.16-.33-.5-.51-.74-.46,1.45-.9,2.91-.98,4.64ZM305.59,199.82c-.71-.49-1.43-.99-2.14-1.49,0,.72-.04,1.45-.05,2.17.78-.08,1.56-.17,2.19-.68ZM335.39,136.52c.67-1.47,1.33-2.93,1.97-4.41,0,0-.35-.18-.53-.27-.57,1.54-1.14,3.08-1.44,4.68ZM402.24,14.03c.32-.84.66-1.68.99-2.52-.35-.08-.92-.35-1.02-.23-.63.83-1.16,1.73-1.72,2.62.46.16.93.32,1.75.13ZM357.08,66.34c-.33-.47-.67-.93-.99-1.39-.39.73-.9,1.44-1.13,2.23-.1.35.38.9.6,1.36.51-.61,1.03-1.2,1.51-2.2ZM335.01,177.65c-.14-.09-.28-.22-.42-.28-.03,0-.15.14-.19.24-.75,1.64-1.49,3.3-2.22,4.96,0,.01.33.18.5.28.77-1.61,1.54-3.24,2.34-5.2ZM334.82,188.1c-.13-.4-.27-.81-.4-1.21-.72,1.24-1.52,2.45-2.14,3.74-.11.23.47.81.74,1.23.57-1.1,1.13-2.21,1.8-3.76ZM381.99,86.43c-.34.89-.92,1.76-.95,2.69-.02.66.75,1.37,1.16,2.06.01-1.71.04-3.4-.22-4.75ZM348.39,188.2c.33-.9.68-1.8,1.01-2.7-.18-.05-.48-.17-.5-.11-1.34,2.08-2.67,4.17-3.94,6.29-.11.19.11.6.17.91,1.04-1.31,2.1-2.61,3.26-4.39ZM344.53,42.85c.06-1.25.14-2.5.2-3.75-.79,1.12-1.73,2.18-2.32,3.4-.28.59.1,1.52.18,2.3.63-.48,1.26-1,1.94-1.95ZM354.85,132.87c.06,1.39.13,2.77.2,4.16.68-1.36,1.54-2.67,1.99-4.12.37-1.16.23-2.52.3-3.78-.74,1.12-1.49,2.24-2.49,3.73ZM314.03,214.28c.58-1.78,1.15-3.55,1.73-5.33-.62.21-1.73.28-1.79.63-.3,1.59-.3,3.27.06,4.7ZM313.42,159.65c.09-.42.18-.86.27-1.29-.26-.05-.71-.2-.72-.13-1.25,2.84-2.47,5.71-3.64,8.59-.04.1.43.45.66.67,1.02-2.18,2.04-4.34,3.06-6.51.12-.3.17-.63.38-1.33ZM310.97,201.86c-.58-.35-1.17-.7-1.76-1.04-.7,2.04-1.4,4.08-2.04,6.15-.03.09.62.42.96.65.89-1.79,1.78-3.58,2.84-5.76ZM377.04,92.82c-.21-1.18-.45-2.36-.66-3.53-.26.13-.73.2-.76.38-.45,2.5-.86,4.99-1.22,7.5-.03.19.28.44.42.68.71-1.52,1.42-3.04,2.22-5.01ZM353.33,145.14c-.04-.64-.07-1.3-.11-1.94-.43.34-1.12.58-1.29,1.03-1.54,4.19-2.97,8.42-4.44,12.64,1.85-3.66,3.71-7.33,5.56-10.99.05-.12.09-.21.28-.74ZM343.28,137.85c-.38,4.1-.74,8.19-1.11,12.28.35-.14.97-.2,1.01-.43.88-3.96,1.68-7.94,2.5-11.92-.71-.12-1.43-.23-2.4.06ZM349.2,52.22c.87-.66,2.19-1.13,2.56-2.02,1.38-3.52,2.49-7.19,3.64-10.82.21-.68.09-1.48.14-2.23-.95.32-2.56.39-2.75.98-1.45,4.54-2.6,9.17-3.6,14.09ZM342.48,158.06c2.65-5.62,5.31-11.25,7.95-16.88.03-.06-.23-.28-.35-.42-.41.46-.93.87-1.19,1.41-3.19,6.33-6.35,12.66-9.47,19.03-.34.69-.34,1.58-.51,2.37.83.05,1.99.47,2.41.09.73-.66,1.2-1.78,1.39-2.81.13-.78-.3-1.7-.24-2.79ZM356.97,46.88c-1.6,1.91-3.65,3.61-4.66,5.81-1.18,2.56-1.45,5.58-2.12,8.39,2.01-3.08,4.06-6.12,5.99-9.24.47-.78.52-1.85.88-2.74.08-.19,1.02-.21,1.03-.18.29.98.53,1.99.77,2.99,1.07-2.06,2.12-4.13,3.19-6.19-1.28-.3-2.56-.74-3.82-.81-.38,0-.72,1.12-1.25,1.97ZM360.95,111.09c-.25,2.86-.52,5.7-.73,8.55-.03.53.17,1.09.28,1.64.31-.19.74-.29.89-.57,3.58-6.72,7.15-13.44,10.64-20.21.28-.54-.12-1.46-.2-2.2-.29.09-.68.08-.84.29-3.29,4.02-6.57,8.06-10.03,12.5ZM353.35,154.05c.38.86.75,1.71,1.14,2.55.48-.52.94-1.04,1.42-1.56-.63-.27-1.26-.54-1.41-1.07,1.27-1.99,2.52-4.01,3.82-6,.26-.4.7-.68,1.06-1-.05.41-.07.83-.14,1.23-.29,1.76-.61,3.52-.92,5.28.89-1.71,1.82-3.39,2.65-5.13,1.59-3.32,3.09-6.68,4.7-10,.56-1.16,1.29-2.22,1.95-3.32-.23,1.1-.52,2.19-.66,3.3-.05.43.21.92.31,1.38.47-.31,1.3-.53,1.38-.96,1.27-6,2.46-12.04,3.59-18.08.1-.57-.28-1.27-.42-1.9-.48.4-1.1.71-1.4,1.22-2.8,5.07-5.5,10.17-8.29,15.24-.63,1.15-1.39,2.21-2.08,3.32.18-1.37.39-2.74.56-4.13.19-1.63.35-3.25.51-4.87-.18.1-.44.14-.51.26-1.34,3.28-2.65,6.57-4.22,9.52-.37,1.59-.75,3.18-1.15,5.25-.62,3.05-1.26,6.07-1.91,9.47ZM302.31,191.38c.63-.32,1.24-.64,1.87-.96-.16-.25-.29-.49-.45-.74-.58.55-1.17,1.11-1.81,1.27-.21-.6-.44-1.2-.64-1.8-.18.62-.5,1.21-.51,1.84-.02.69.25,1.4.39,2.11.26-.64.53-1.27,1.15-1.72ZM403.92,55.12c-4.53,9.22-8.92,18.52-13.67,27.62-1.06,2.03-4.15,3.03-4.86,5.08-1.76,5.07-2.31,10.63-4.02,15.72-2.24,6.68-5.24,13.04-7.68,19.64-.45,1.22.17,2.9.29,4.37.89-1.81,1.81-3.61,2.68-5.44.37-.75.66-1.54.99-2.3.11.9.45,1.84.31,2.68-.86,5.16-1.73,10.35-2.88,15.43-.15.7-2.28.65-2.95,1.43-1.17,1.35-2,3.02-2.81,4.66-.67,1.35-1.09,2.83-1.62,4.26-.1-.97-.2-1.93-.3-2.91-.37.09-.88.06-1.07.3-3.82,4.79-7.6,9.63-11.42,14.42-.35.43-.97.62-1.46.91-.5.31-1.36.48-1.47.92-1.88,6.59-3.67,13.2-5.44,19.83-.1.39.25.93.4,1.41.24-.32.5-.62.69-.98,3.9-7.71,7.78-15.44,11.73-23.13.36-.69,1.05-1.21,1.6-1.81-.06.84.07,1.75-.22,2.48-4.46,11.03-8.51,22.27-13.61,32.96-4.29,9-9.78,17.36-14.81,25.95-.51.85-1.55,1.36-2.35,2.01-.41-1-.76-2.02-1.26-2.99-.26-.53-1.02-1.4-1.1-1.36-4.52,2.6-8.97,5.3-13.47,7.93-1.71.99-3.52,1.84-5.28,2.75-.86-2.02-2.5-4.12-2.39-6.03.21-3.72,1.42-7.3,2.15-10.95.07-.36-.18-.97-.49-1.23-1.84-1.48-3.75-2.88-5.63-4.32-.22-.17-.42-.34-.63-.51-.65,1.59-1.33,3.17-1.91,4.77-.25.7-.31,1.49-.46,2.23-.26-.21-.69-.4-.75-.66-.29-1.18-.74-2.41-.65-3.56.5-6.13,1.13-12.23,1.7-18.34.02-.2-.33-.47-.52-.7-.3,1.14-.49,2.3-.94,3.37-.67,1.61-1.49,3.14-2.25,4.72-.05-1.5,0-3.03-.17-4.52-.21-1.97-.61-3.92-.92-5.89-.44,1.38-.78,2.83-1.43,4.1-.08.15-1.74-.56-2.77-1.02-.09-.15-.12-.1-.12-.1,1.86-5.86,3.29-11.95,5.72-17.53,3.07-7.07,6.8-13.86,10.61-20.54,2.69-4.74,6.01-9.11,9.12-13.65.24.61.4,1.21.56,1.83.46-.64,1-1.22,1.33-1.92.2-.43.08-1.02.1-1.54-.63.42-1.26.84-1.89,1.26-.68-3.71-2.03-7.47-1.88-11.09.26-6.54.29-13.46,2.45-19.35,3.77-10.24,9.07-19.83,13.8-29.65.24-.5,1.16-.63,1.77-.92.23,1.04.44,2.07.67,3.11.12-2.09.19-4.18.37-6.27.08-1.06.36-2.09.56-3.14.82.64,1.68,1.25,2.44,1.94.58.53,1.05,1.2,1.56,1.81.45-.58.94-1.14,1.33-1.77,2.83-4.66,5.7-9.3,8.4-14.05.5-.9.45-2.18.49-3.3,0-.23-.99-.85-1.14-.76-.95.62-2.13,1.18-2.6,2.13-1.67,3.35-3.05,6.85-4.63,10.26-.28.59-.99.94-1.5,1.4-.3-.83-.98-1.77-.81-2.47.72-3.05,1.72-6.01,2.57-9.02.37-1.32.63-2.67.95-3.99-.93.52-1.83,1.07-2.78,1.55-.2.1-.53-.1-.82-.15.3-1.45.62-2.9.89-4.36.19-1.07.28-2.16.4-3.25,0-.02-.26-.11-.27-.14.36-.99.52-2.19,1.17-2.92,2.01-2.3,4.14-4.53,6.4-6.6.97-.89,2.35-1.35,3.59-2.22.04-.22.02-.12.02-.12,5.06-6.4,9.66-13.25,15.42-18.95,1.94-1.93,6.79-.91,10.3-1.23,1.37-.14,3.22.24,4.04-.49,4.5-4.05,8.66-8.47,13.37-12.26.23-.19,4.42,4.43,6.63,7.18-.21,1.53-.27,2.71-.35,3.88.18,0,.53,0,.53-.02-.04-1.27-.09-2.56-.15-3.83,2.82,1.7,7.34,2.94,8.09,5.19,1.38,4.21.68,9.03.6,13.58-.04,1.49-.85,2.92-1.31,4.37.74-.72,1.48-1.45,2.22-2.17.22.53.67,1.11.61,1.6-.56,4.46-1.2,8.92-1.94,13.55-.99,2.52-1.86,4.86-2.73,7.16,0-.03.02-.12-.14,0-.36,1.67-.55,3.21-.75,4.72-.12-.05-.14-.09-.14-.09ZM534.18,140.13c.52-.11,1.07-.2,1.57-.38.05-.02-.1-.54-.16-.82-.49.29-.98.58-1.4,1.2ZM547.29,101.26c-1,.44-2.01.88-3.02,1.32.12.14.34.41.38.39,1-.51,1.99-1.08,2.64-1.7ZM440.97,179.08c-.55.61-1.09,1.21-1.63,1.83.14.09.38.29.39.27.49-.63.98-1.29,1.24-2.1ZM442.09,259.86c.08-.59.15-1.16.23-1.75-.63.32-1.26.64-1.91.97.48.31.96.65,1.68.78ZM428.32,222.83c-.15.28-.28.54-.4.84,0,.01.19.15.19.15.8-.97,1.61-1.92,2.36-2.93.08-.1-.16-.44-.25-.67-.54.79-1.09,1.55-1.9,2.61ZM418.68,279.72c-.39.73-.77,1.47-1.16,2.2.89-.59,1.78-1.19,2.67-1.77-.39-.23-.79-.46-1.51-.43ZM537.9,141.68c-.03.25-.05.5-.06.76.11-.03.25-.04.3-.1.63-.85,1.25-1.7,1.84-2.58.03-.04-.2-.26-.32-.39-.53.68-1.04,1.37-1.76,2.31ZM394.07,266.89c-.32.65-.65,1.29-.96,1.95.46.07.91.12,1.36.19.04-.86.07-1.7.11-2.56-.09.06-.16.13-.51.42ZM432.3,217.71c.68-.13,1.35-.25,2.02-.38-.13-.38-.23-.76-.36-1.14-.54.37-1.1.77-1.66,1.52ZM474.25,185.23c.35-.53.68-1.07,1.03-1.6-.91.51-1.85.98-2.7,1.59-.38.27-.51.83-.75,1.27.71-.32,1.43-.65,2.42-1.27ZM477.61,185.47c.29-.95.59-1.89.89-2.84-.26.13-.66.2-.74.41-.47,1.18-.89,2.38-1.33,3.59.33-.27.65-.54,1.19-1.15ZM557.57,119.56c-.87.62-1.77,1.24-2.64,1.86.24.29.49.57.73.86.75-.81,1.5-1.65,1.91-2.72ZM503.18,173.59c.87-1.2,1.72-2.38,2.59-3.58-.25-.1-.7-.35-.73-.31-.8,1.29-1.57,2.61-1.85,3.89ZM446.01,253.18c.51-.68,1.06-1.32,1.51-2.04.25-.41.32-.94.47-1.42-.33.19-.81.29-.94.58-.47,1.04-.83,2.15-1.03,2.88ZM464.42,152.35c-1.25.38-2.49.76-3.73,1.12.2.36.4.73.61,1.1,1.04-.63,2.07-1.27,3.11-2.23ZM485.36,169.8c.09-.18.2-.37.27-.58.02-.08-.04-.21-.07-.31-.85.89-1.76,1.76-2.56,2.69-.14.18.02.63.05.97.92-.23,1.84-.45,2.76-.68-.2-.61-.41-1.23-.44-2.09ZM478.09,189.9c-.23-.35-.47-.69-.69-1.03-.86,1.02-1.73,2.02-2.55,3.07-.12.14.08.54.15.81.96-.85,1.92-1.69,3.09-2.86ZM549.71,109.63c.64-.33,1.84-.67,1.82-1.02-.04-1.02-.57-2.06-.92-3.09-.38,1.28-.75,2.53-.9,4.11ZM419.49,270.58c.13-1.19.28-2.38.42-3.59-.7.68-1.59,1.24-2.01,2.07-.14.27.95,1.22,1.58,1.51ZM435.49,221.42c1.07-1.21,2.2-2.37,3.18-3.65.27-.36.05-1.09.04-1.64-.63.22-1.59.24-1.86.69-1.07,1.92-1.91,3.96-2.83,5.97.42-.33.83-.66,1.47-1.36ZM462.97,137.76c.6-1.33,1.2-2.66,1.81-3.99-.81.77-1.83,1.39-2.38,2.32-.84,1.41-1.36,3.03-2.01,4.55.75-.86,1.5-1.69,2.58-2.89ZM406.79,265.28c-.49-.49-1.39-1.46-1.42-1.44-1.42,1.25-2.76,2.57-4.12,3.89,1.72-.69,3.42-1.39,5.54-2.44ZM421.49,265.94c1.16-1.17,2.32-2.34,3.47-3.52-.37-.28-.74-.55-1.12-.82-.88,1.36-1.78,2.73-2.35,4.34ZM518.34,169.13c-.94,1.22-1.89,2.42-2.83,3.64.6.09,1.51.45,1.75.21,1.18-1.28,2.21-2.72,3.28-4.1-.6.01-1.23.03-2.2.26ZM549.87,121.24c1.41-1.65,2.82-3.31,4.24-4.95-.38-.17-1.05-.55-1.12-.47-1.44,1.94-2.8,3.92-4.18,5.9.18-.03.37-.04.54-.08.09-.04.17-.14.52-.41ZM434.55,267.83c1.44-1.47,3-2.85,4.25-4.47.33-.43-.31-1.63-.51-2.48-1.35,2.39-2.71,4.76-3.74,6.95ZM541.83,100.28c.11-.74.2-1.5.31-2.25-1.82.64-3.67,1.23-5.41,1.99-.33.15-.29,1.07-.41,1.64,1.7-.39,3.4-.77,5.51-1.38ZM459.61,160.3c-.66-.73-1.32-1.44-1.98-2.17-1.59,2.49-3.18,4.95-4.75,7.46-.12.2.03.6.06.9.39-.1.9-.06,1.16-.31,1.84-1.77,3.65-3.59,5.51-5.88ZM430.47,229.83c.59-1.2,1.2-2.39,1.79-3.59-1.17,1.15-2.5,2.17-3.43,3.49-1.51,2.14-2.73,4.49-4.08,6.76,1.81-2.07,3.62-4.15,5.72-6.66ZM518.88,165.62c.75-1.64,1.5-3.29,2.24-4.94-.97-.02-1.96-.04-2.93-.06.14,1.77.28,3.54.69,5ZM488.51,202.83c2.15-1.3,4.31-2.61,6.42-3.96.11-.07-.18-.7-.28-1.07-1.86,1.26-3.74,2.51-5.58,3.79-.26.17-.38.5-.57,1.24ZM546.84,129.51c.72-1.51,1.44-3.04,2.17-4.55-1.59,1.56-3.36,3-4.7,4.76-.79,1.06-.91,2.64-1.33,4,1.21-1.26,2.41-2.5,3.86-4.21ZM440.97,219.11c-2.48,3.11-5,6.21-7.44,9.36-.36.48-.38,1.21-.57,1.83.34-.16.81-.22,1.02-.48,2.82-3.51,5.67-6.99,8.39-10.56.68-.89,1-2.1,1.47-3.15-.88.87-1.75,1.75-2.88,3.01ZM479.49,216.6c.14-.66.26-1.33.4-1.99-1.96.59-4,1-5.82,1.86-1.18.56-2,1.8-2.98,2.73,1.33-.15,2.72-.12,3.97-.49,1.41-.4,2.69-1.19,4.44-2.11ZM555.59,111.2c-.53.44-1.06.9-1.59,1.34.49.55,1.01,1.58,1.43,1.56,2.68-.11,5.33-.46,7.97-.74-1.92-.36-3.85-.66-5.74-1.11-.57-.15-1.07-.7-2.07-1.06ZM446.15,244.41c-4.98,6.38-9.99,12.73-14.91,19.17-.64.84-.74,2.12-1.1,3.2.33-.19.78-.3.99-.59,5.41-7.06,10.87-14.09,16.13-21.28,1.62-2.21,2.59-4.9,3.86-7.37-1.59,2.15-3.18,4.29-4.98,6.86ZM492.38,192.46c-.99,1.1-2.1,2.12-2.87,3.37-.17.28.91,1.39,1.42,2.11,3.9-3.35,7.83-6.68,11.7-10.07.43-.39.56-1.09.83-1.64-.58-.01-1.31-.26-1.71-.01-3.07,1.87-6.06,3.85-9.37,6.24ZM528.97,164.26c-.92,1.09-1.84,2.19-2.75,3.29.22.17.41.35.62.52.87-1.37,1.72-2.74,3.01-4.18,1.06-1.51,2.11-3.01,3.17-4.53-1.96.79-3.93,1.57-5.89,2.36.75.74,1.5,1.49,1.82,2.54ZM558.01,108.61c.34.43.66.87,1,1.3.15-.77.29-1.54.43-2.3-.57.02-1.14.02-1.94-.32-.67-.72-1.35-1.44-2.01-2.15-.19,1.36-.37,2.74-.56,4.1,1.02-.36,2.03-.71,3.08-.64ZM526.72,174.1c-1.76.99-3.63,1.83-5.27,2.97-2.48,1.73-5.24,3.32-7.11,5.62-5.8,7.1-11.24,14.52-16.83,21.82-.06.07-.04.22-.11.29-2.81,2.88-5.49,5.94-8.5,8.6-6.21,5.51-12.57,10.88-19,16.16-1.23,1.02-3.08,1.33-4.6,2.04-.44.2-.88.6-1.1,1.03-2.37,4.21-4.61,8.5-7.11,12.62-.24.4-1.81-.08-2.59-.37,2.51-3.58,4.87-6.91,7.12-10.31.23-.36-.14-1.15-.23-1.75-.41.32-.99.54-1.24.97-2.08,3.65-4.07,7.33-6.1,11.03-2.67,3.88-5.38,7.76-7.98,11.7-.33.51-.09,1.43-.11,2.14.52-.15,1.25-.16,1.5-.51.93-1.35,1.7-2.79,2.52-4.21.24.51.81,1.17.66,1.48-.91,2.01-1.93,3.97-3.02,5.88-.33.58-.97.99-1.5,1.44-1.85,1.63-3.69,3.26-5.54,4.89,1.15-1.6,2.41-3.11,3.39-4.8.35-.61.01-1.63,0-2.47-.61.39-1.38.66-1.8,1.21-3.32,4.35-6.03,9.35-9.99,12.99-6.64,6.11-14.06,11.36-21.19,16.97-.23.19-.82.36-.87.3-.79-1.13-2.29-2.47-2.13-3.43.97-5.67,2.16-11.3,3.68-16.82.45-1.67,2.57-2.7,3.25-4.35,1.39-3.42,2.32-7.07,3.44-10.61-3.27,1.63-6.56,3.24-9.79,4.93-.31.16-.3.88-.42,1.36,1.03-.08,2.06-.16,3.08-.22-3.95,2.7-7.75,5.63-11.89,8-1.87,1.08-4.4,1.15-6.65,1.55-2.3.4-4.63.61-6.95.89.15-3.96-.43-8.24.81-11.76.61-1.74,4.71-1.93,7.09-3.09,1.17-.57,2.08-1.72,2.93-2.75.22-.28-.06-1.49-.25-1.55-1.22-.33-2.48-.6-3.71-.56-1.35.04-2.68.41-4.02.65.99-.54,2.02-1.06,2.98-1.66.28-.17.65-.72.57-.88-.68-1.18-1.47-2.31-2.23-3.45-.39.26-.85.44-1.14.78-.5.57-.83,1.28-1.32,1.86-1.68,2.04-3.42,4.05-5.13,6.07.88-2.92,1.06-6.41,2.76-8.69,9.31-12.56,19-24.84,28.56-37.22.49-.63.95-1.27,1.41-1.92-.57.47-1.16.92-1.72,1.42-2.07,1.86-4.13,3.73-6.2,5.58,1.61-2.83,2.98-5.83,4.86-8.46,12.29-17.09,24.98-33.9,36.92-51.23,5.59-8.12,9.84-17.21,14.93-26.21,1.42-1.79,2.63-3.25,3.81-4.73.02-.02-.27-.32-.44-.49-1.25,1.7-2.5,3.37-3.75,5.07-1.51,1.17-3.03,2.32-4.54,3.48.54-1.82.63-3.99,1.71-5.39,4.99-6.49,10.25-12.75,15.45-19.08.31-.38.95-.47,1.45-.7-.2.39-.67.9-.54,1.18.61,1.44,1.24,2.94,2.16,4.2.87,1.2,2.05,2.2,3.21,3.14.31.25,1.25.16,1.57-.14,1.94-1.73,3.69-3.68,5.71-5.3,1.67-1.36,3.62-2.39,5.45-3.56-1.57,1.66-3.16,3.31-5.18,5.2-5.19,5.35-9.94,10.44-14.68,15.56-.27.29-.38.72-.56,1.09.35-.07.84-.01,1.03-.23,4.74-5.54,9.44-11.1,14.15-16.66-.16,1.86-.32,3.71-.48,5.57,3.35-2.73,6.57-5.61,10.06-8.2,10.57-7.88,21.23-15.63,32.02-23.57.16-.13.09-.14.09-.14,3.95,1.49,7.9,2.97,11.85,4.51.48.19.85.68,1.27,1.04-.65.29-1.24.66-1.92.84-1.77.49-3.9.43-5.25,1.43-2.65,1.95-4.9,4.46-7.3,6.73,3.1-1.3,6.17-3.79,9.29-3.62,4.92.26,9.89,2.25,14.81,3.63.61.17,1.05,1.52,1.61,1.57,5.44.57,11.37,9.32,8.37,14.74-5.97,10.82-13.56,20.66-20.23,31.07-2.9,4.53-5.2,9.49-7.91,14.45-.16.2-.09.18-.16-.03-.16-1.2-.27-2.19-.39-3.17-1,1.51-2.2,2.9-2.88,4.56-.23.55.92,1.73,1.43,2.59,0-.02-.04-.07-.04-.07-1.64,2.82-3.34,5.62-4.9,8.48-1.44,2.65-2.73,5.38-4.07,8.07-.61,1.22-1.16,2.5-1.75,3.74-.73-1.2-1.89-2.38-2.05-3.6-.14-1.08.71-2.33,1.38-3.33,1.08-1.58,2.36-3.01,3.73-4.77.19-.53.22-.83.26-1.13ZM264.36,577.52c.86-.35,1.71-.7,2.56-1.05-.1-.2-.19-.41-.27-.59-.87.49-1.74.99-2.29,1.65ZM313.02,256.44c-.42-.04-.83-.1-1.25-.14.67.62,1.31,1.29,2.03,1.84.19.15.63-.05.96-.07-.45-.5-.89-1-1.75-1.63ZM199.33,507.56c-.21-.55-.41-1.08-.62-1.63-.29.18-.59.37-.88.55.41.43.81.85,1.5,1.07ZM326.94,276.21c.35-.19.7-.38,1.06-.58-.59-.34-1.2-.69-1.79-1.03.15.45.32.91.73,1.62ZM93.9,475.63c-.29-.43-.58-.87-.86-1.31-.12.47-.25.94-.37,1.42.41.08.84.16,1.23-.11ZM333.32,285.77c-.18.1-.35.19-.53.29.2.34.36.9.59.95.51.1,1.05-.06,1.58-.13-.43-.35-.87-.7-1.65-1.11ZM323.91,402.24c.37-.14.73-.28,1.11-.43-.26-.44-.52-.87-.78-1.32-.18.49-.35.98-.34,1.74ZM330.09,313.71c-.21-.7-.43-1.4-.64-2.09-.27.12-.55.21-.82.33.39.67.78,1.36,1.46,1.77ZM228.08,599.76c-.48.3-.97.6-1.45.89.83-.02,1.68-.05,2.51-.07-.24-.31-.48-.63-1.06-.81ZM307.71,330.09c.3.97.6,1.95.9,2.92.24-.08.49-.14.73-.22-.4-.9-.83-1.81-1.63-2.7ZM53.05,216.9c.53-.32,1.1-.61,1.58-1.01.05-.04-.35-.64-.55-.98-.41.54-.8,1.07-1.03,1.99ZM141.1,305.58c.07.63.11,1.26.18,1.88.41-.02.81-.05,1.23-.08-.36-.58-.72-1.17-1.41-1.8ZM202.85,516.16c.56.02,1.11.02,1.67.04-.32-.48-.65-.94-.97-1.41-.32.35-.64.72-.69,1.38ZM257.46,590.99c.69-.41,1.38-.83,2.06-1.26-.15-.18-.42-.51-.42-.51-.69.51-1.37,1.04-1.65,1.77ZM294.86,262.72c.92.62,1.82,1.29,2.77,1.85.26.15.68-.04,1.02-.07-1.33-.72-2.67-1.44-3.79-1.79ZM355.55,300.5c.34.73.65,1.47,1.03,2.17.03.06.53-.12.81-.2-.47-.67-.94-1.33-1.84-1.98ZM384.88,382.13c-.16.46-.33.92-.48,1.39.37.08.73.15,1.1.23-.11-.48-.21-.96-.61-1.62ZM351.94,349.37c.02,1.02.02,2.05.05,3.08.36.02.72.03,1.09.05-.24-1.04-.49-2.09-1.13-3.12ZM397.17,410.39c-.42.01-.85.03-1.27.04.5.5,1.01.99,1.52,1.5,0-.45.02-.89-.24-1.54ZM219.27,602.8c.36-.25.71-.51,1.07-.76-.33-.21-.67-.42-1-.63-.13.43-.26.86-.07,1.38ZM156.84,597.59c-.11.01-.24-.02-.31.02-.08.05-.19.22-.18.25.58.6,1.15,1.2,1.77,1.74.08.07.49-.24.74-.37-.57-.52-1.14-1.01-2.01-1.64ZM81.2,235.59c-.28-.8-.58-1.61-.86-2.41-.18.19-.55.46-.51.58.33.72.74,1.41,1.37,1.83ZM412.49,430.42c.26-.72.54-1.42.75-2.16.02-.05-.41-.25-.63-.39-.13.78-.28,1.57-.12,2.55ZM370.27,344.15c-.13.09-.39.24-.38.28.23.5.42,1.03.76,1.46.14.19.56.16.87.22-.35-.62-.69-1.23-1.24-1.96ZM227.71,538.39c-.22.71-.44,1.42-.65,2.14.35.05.71.1,1.06.13,0-.72.02-1.44-.41-2.26ZM250.06,346.89c.11.94.22,1.88.38,2.81,0,.09.48.11.75.17-.29-.92-.58-1.85-1.13-2.98ZM280.21,245.61c-.34.22-.66.45-1,.68,1.25.24,2.49.51,3.75.69.19.03.42-.3.62-.45-.99-.34-1.98-.67-3.37-.92ZM313.77,428.81c.05,1.14.08,2.3.16,3.45,0,0,.34.02.52.02-.15-1.07-.32-2.13-.68-3.47ZM244.36,601.35c-.47.47-.93.93-1.4,1.4.35.18.67.36,1.02.55.26-.66.51-1.32.38-1.94ZM191.32,555.43c.1.69.19,1.38.3,2.08.52-.49,1.02-.97,1.54-1.47-.56-.33-1.11-.68-1.84-.61ZM303.18,260.45c1.26.98,2.53,1.96,3.81,2.91.05.04.27-.16.41-.26-1.29-.88-2.55-1.76-4.22-2.65ZM319.36,405.88c.51.05,1.03.12,1.55.16-.13-.4-.25-.81-.38-1.22-.42.25-.83.49-1.16,1.05ZM59.63,393.81c.1.71.2,1.42.29,2.14.26-.15.77-.37.74-.43-.25-.67-.57-1.33-1.03-1.71ZM133.21,300.73c-.44-.85-.89-1.69-1.34-2.54-.28.23-.56.45-.84.68.61.63,1.21,1.25,2.19,1.86ZM354.96,378.41c-.05,1.07-.11,2.14-.16,3.21.22-.2.65-.39.64-.59-.04-.96-.2-1.93-.48-2.61ZM147.62,460.49c.32.77.63,1.55.95,2.32.2-.29.6-.58.58-.87-.08-1.03-.29-2.07-.46-3.1-.39.41-.76.83-1.07,1.65ZM81.74,397.53c.14-1.11.28-2.2.41-3.32-.29.02-.83.02-.84.06-.02,1.07.02,2.15.43,3.26ZM382.77,373.73c-.51.24-1.01.49-1.52.73.56.61,1.09,1.22,1.65,1.82.02-.73.05-1.46-.13-2.55ZM54.7,124.17c.78.92,1.58,1.84,2.35,2.76-.18-.7-.15-1.58-.57-2.08-.8-.94-1.87-1.67-2.82-2.47.25.5.51.98,1.05,1.79ZM349.28,330.77c.32-.32.95-.79.88-.93-.34-.63-.88-1.18-1.35-1.76.1.79.2,1.56.46,2.68ZM175.99,354.78c.5.56.99,1.12,1.49,1.67-.02-.57.12-1.18-.08-1.68-.31-.74-.86-1.4-1.32-2.09-.1.57-.18,1.16-.09,2.1ZM78.03,274.84c-.33.63-.66,1.26-.99,1.89.47.22.93.44,1.39.67,0-.79,0-1.57-.41-2.56ZM211.12,606.06c.17.55.34,1.58.5,1.59.68.04,1.36-.22,2.05-.38-.75-.44-1.48-.88-2.54-1.2ZM157.97,335.31c.43,1.31.83,2.62,1.25,3.93.18-.05.37-.12.54-.18-.49-1.23-1-2.46-1.79-3.75ZM67.77,437.85c.28.41.58.82.86,1.23.05-.89.16-1.79.08-2.68-.03-.36-.51-.71-.79-1.05-.08.71-.16,1.43-.16,2.5ZM147.7,328.3c.05.83.08,1.64.17,2.46,0,.02.6.03.93.04-.23-.84-.48-1.71-1.1-2.5ZM82.44,212.28c.11.78.21,1.55.32,2.35.33-.46.93-.91.92-1.39,0-.42-.71-.85-1.24-.96ZM298.46,415.35c.21-.52.72-1.33.57-1.49-.57-.56-1.36-.91-2.07-1.35.39.84.79,1.68,1.5,2.84ZM301.13,392.63c.45,1.33.89,2.65,1.34,3.98.21-.14.64-.35.61-.42-.54-1.32-1.12-2.62-1.95-3.56ZM101.97,502.02c-.4-.95-.8-1.89-1.2-2.84-.26,1.13-.52,2.24-.78,3.37.65-.05,1.31-.09,1.99-.53ZM381.99,387.42c.4.6.82,1.19,1.23,1.8.25-.45.82-1.04.69-1.34-.32-.77-.98-1.42-1.52-2.13-.19.44-.38.89-.4,1.67ZM264.75,271.44c-.29.56-.66,1.07-.84,1.65-.09.34.13.79.22,1.2.24-1.05.47-2.11.62-2.85ZM76.55,231.21c1.03-.39,2.06-.79,3.08-1.18-.18-.36-.37-.74-.56-1.1-.88.63-1.78,1.25-2.53,2.28ZM304.35,382.97c-.38-1.1-.78-2.19-1.16-3.28-.3.11-.6.23-.91.35.54.97,1.08,1.94,2.08,2.93ZM298.89,263.35c.83.31,1.68.63,2.52.94-.2-.49-.25-1.21-.6-1.43-1.17-.75-2.45-1.32-3.69-1.96.48.7.96,1.4,1.77,2.45ZM362.51,373.47c-.38-.58-.76-1.16-1.13-1.76-.25,1.04-.62,2.07-.69,3.13-.02.34.79.78,1.22,1.18.22-.69.43-1.39.6-2.56ZM340.94,321.36c.6.41,1.21.8,1.81,1.2.04-.62.33-1.39.06-1.81-.44-.67-1.28-1.11-1.94-1.64-.03.6-.05,1.22.07,2.24ZM234.39,516.41c0,.1-.03.23.03.28.06.07.21.11.29.08,1.44-.34,2.87-.7,4.32-1.06-.19-.23-.45-.69-.54-.67-1.33.35-2.64.75-4.1,1.37ZM61.89,322.57c.14,1.02.3,2.03.45,3.07.29-.38.83-.76.82-1.16-.03-1.33-.26-2.66-.43-4-.26.56-.51,1.13-.83,2.09ZM64.1,426.13c-.33-1.57-.67-3.14-1-4.71-.19.21-.57.47-.53.61.46,1.51.98,3,1.53,4.1ZM173.05,451.31c0,1.49,0,2.98.01,4.47.29-.26.84-.53.81-.79-.1-1.34-.33-2.67-.82-3.68ZM194.41,560.75c-.43-.4-.84-.79-1.27-1.2-.39.65-.91,1.26-1.11,1.97-.11.41.33.99.51,1.5.6-.62,1.2-1.24,1.87-2.27ZM69.68,101.63c-.38-.24-.75-.49-1.14-.74.61,1.18,1.14,2.4,1.86,3.51.17.25.91.16,1.41.23-.59-.91-1.2-1.82-2.14-3ZM84.25,477.54c.31.31.63.61.94.91-.71-1.56-1.39-3.15-2.17-4.68-.11-.23-.67-.27-1.02-.4.68,1.26,1.35,2.53,2.24,4.17ZM345.77,528.28c-.08.45-.18.9-.26,1.35,1.19-.64,2.39-1.23,3.53-1.95.23-.13.15-.73.22-1.11-1.03.49-2.07.98-3.49,1.71ZM326.2,332.14c-.16-1.41-.35-2.83-.51-4.24-.45.21-1.29.58-1.28.63.5,1.33,1.12,2.62,1.79,3.61ZM88.35,230.46c-.44-.39-.86-.79-1.3-1.18-.26.79-.79,1.61-.68,2.39.06.44,1.14.82,1.76,1.22.11-.68.23-1.36.22-2.43ZM66.77,426.08c-.45,1.49-.91,2.99-1.36,4.48.27-.02.76.04.77-.05.38-1.45.7-2.93.59-4.43ZM55.45,130.44c.47,1.28.89,2.59,1.42,3.85.1.26.57.4.85.59-.06-.64.07-1.38-.22-1.91-.73-1.34-1.65-2.58-2.49-3.86.08.34.16.66.44,1.34ZM319.42,423.81c-.31-.94-.63-1.87-.94-2.81-.23.53-.73,1.07-.62,1.55.22,1.1.72,2.16,1.11,3.25.16-.52.33-1.05.44-1.99ZM328.8,298.39c-.24.74-.79,1.55-.61,2.17.19.6,1.16,1.01,1.79,1.5-.28-1.12-.57-2.23-1.18-3.68ZM306.52,328.43c-.74-1.8-1.49-3.61-2.25-5.41,0,0-.39.14-.61.22.82,1.7,1.64,3.43,2.86,5.19ZM300.2,319.76c-.42-.61-.83-1.2-1.24-1.81-.27.51-.89,1.1-.75,1.52.25.79.91,1.46,1.41,2.2.21-.48.43-.98.59-1.91ZM90.16,345.87c.5-.05,1.42-.12,1.42-.2-.07-1.53-.24-3.08-.4-4.6-.38,1.47-.77,2.93-1.02,4.8ZM309.08,342.25c.53-.22,1.08-.45,1.61-.68-.5-.97-1.01-1.96-1.52-2.92-.12,1.13-.23,2.24-.09,3.59ZM381.11,366.28c.72,1.09,1.45,2.19,2.17,3.29.12-.66.57-1.61.31-1.92-.68-.75-1.68-1.2-2.47-1.36ZM20.37,161.99c-.75-1-1.5-2.01-2.25-3.01-.15.33-.51.85-.41.95.74.82,1.59,1.56,2.66,2.06ZM171.08,448.54c.25.54.52,1.09.79,1.62.5-1.35,1.07-2.69,1.45-4.08.09-.3-.45-.84-.7-1.26-.53,1.09-1.01,2.19-1.53,3.72ZM307.07,340.58c-.58-.84-1.16-1.7-1.74-2.54-.29.46-.56.91-.85,1.37.84.5,1.68,1.02,2.59,1.17ZM246.93,306.64c.42-.77,1.12-1.49,1.17-2.29.03-.51-.88-1.14-1.38-1.72-.04,1.25-.07,2.49.2,4.01ZM374.62,365.74c.9,1.12,1.78,2.24,2.68,3.36.2-.35.64-.96.57-1.02-.94-.92-1.96-1.73-3.25-2.34ZM320.08,414.2c-.27.93-.81,1.87-.71,2.76.07.59,1.12,1.14,1.71,1.7-.25-1.35-.5-2.71-1.01-4.46ZM244.81,513.24c-.92.4-1.81.81-2.73,1.21.45.15.98.52,1.35.41,1.37-.4,2.67-.97,4-1.46-.73-.07-1.48-.15-2.61-.17ZM72.51,221.21c.51,1.04,1.02,2.06,1.53,3.1.25-.7.93-1.62.67-2.06-.36-.66-1.37-.99-2.2-1.04ZM320.09,446.81c-.56-1.24-1.13-2.47-1.69-3.71-.27.67-.95,1.6-.73,1.98.55.86,1.54,1.44,2.42,1.73ZM213.14,540.27l2.6-1.75c-.34-.41-.68-.82-1.02-1.23-.58.87-1.17,1.74-1.58,2.99ZM301.86,488.01c-1.13.37-2.3.67-3.35,1.17-.32.15-.39.85-.56,1.28.74-.06,1.67.13,2.18-.24,1.27-.91,2.37-2.08,3.52-3.14-.48.25-.94.48-1.79.92ZM292.58,324.33c-.56-.95-1.12-1.87-1.68-2.81-.05,1.46-.19,2.91-.1,4.36.03.5.62,1.01.95,1.52.29-.87.58-1.75.83-3.06ZM173,605.99c.82-.26,1.64-.54,2.46-.8-.34-.83-.68-1.65-1.04-2.48-.53.97-1.06,1.95-1.42,3.28ZM270.22,264.62c-.6.82-1.2,1.62-1.8,2.43,1.24-.34,2.6-.49,3.67-1.11.52-.31.53-1.47.77-2.22-.78.16-1.55.33-2.64.9ZM312.3,390.99c-.45-.08-.89-.17-1.34-.25.47,1.94.94,3.88,1.46,5.81.02.05.34.04.51.05-.19-1.73-.37-3.46-.63-5.61ZM359.74,355.26c-.8-1.61-1.59-3.19-2.39-4.8-.05.67-.33,1.47-.07,2,.6,1.14,1.49,2.15,2.46,2.81ZM311.51,264.24c1.37,1.48,2.73,2.95,4.1,4.43.2-.2.4-.37.59-.57-1.45-1.36-2.9-2.71-4.7-3.86ZM17.91,104.15c-.43-.11-.86-.2-1.29-.31,0,1.29-.03,2.58.07,3.86.01.11.92.21,1.42.32,0-1.15,0-2.28-.2-3.87ZM339.68,298.39c-.13-1.07-.1-2.17-.43-3.19-.15-.48-.96-.77-1.48-1.15.52,1.36,1.05,2.72,1.91,4.34ZM245.94,596.49c.77-1.2,1.52-2.38,2.29-3.58-.39.04-.95-.05-1.14.17-1.2,1.36-2.33,2.8-3.47,4.21.65-.15,1.31-.31,2.32-.8ZM265.85,508.76c-1.57.95-3.14,1.87-4.69,2.83-.03.01.2.46.33.7,1.55-1.1,3.1-2.2,4.36-3.53ZM322.04,447.72c.34.65.69,1.32,1.03,1.98.07-1.66.23-3.32.17-4.99-.02-.47-.67-.95-1.03-1.44-.07,1.34-.14,2.69-.18,4.46ZM78.21,324.65c.14,2.08.27,4.17.41,6.25.25-.07.76-.16.74-.21-.29-2.09-.63-4.16-1.15-6.04ZM142.95,584.35c.93.81,1.8,1.71,2.83,2.36.21.13.97-.64,1.48-1-1.34-.49-2.68-.98-4.31-1.36ZM298.62,328.59c.67.64,1.33,1.27,1.99,1.92-.25-1.48-.37-3-.81-4.44-.1-.36-1.18-.5-1.82-.73.12.95.23,1.9.63,3.25ZM340.59,398.63c.17.79.37,1.58.54,2.37.64-1.56,1.35-3.07,1.86-4.68.14-.42-.4-1.09-.63-1.65-.56,1.19-1.13,2.36-1.77,3.96ZM310.83,434.67c.97.86,1.94,1.7,2.91,2.56.07-.4.32-.89.16-1.2-.67-1.37-1.45-2.69-2.18-4.03-.31.73-.64,1.48-.88,2.66ZM230.31,601.55c-.09.18-.2.37-.27.58-.02.07.13.28.14.27,1.95-.73,3.89-1.48,5.81-2.26.06-.03-.06-.48-.11-.74-1.76.64-3.53,1.28-5.57,2.16ZM411.03,415.01c.75.49,1.52.98,2.27,1.47-.37-1.13-.59-2.33-1.15-3.37-.36-.66-1.2-1.11-1.83-1.63.11,1.06.23,2.14.71,3.53ZM60.01,385.55c-.27-1.56-.52-3.1-.79-4.66-.31.34-.9.68-.89,1.04.07,1.77.3,3.55.45,5.34.36-.44.71-.89,1.22-1.72ZM362.01,355.21c.97.61,1.93,1.2,2.91,1.79-.16-.66-.09-1.57-.49-1.94-1.25-1.07-2.68-1.92-4.03-2.85.42.87.86,1.75,1.61,3ZM253.61,510.31c-1.04-.47-2.11-1.27-3.13-1.28-.55,0-1.02,1.35-1.54,2.08,1.46-.17,2.9-.32,4.67-.8ZM72.54,446.15c-.5-1.21-1.01-2.45-1.51-3.66-.32.32-.9.63-.89.94.07,1.36.34,2.72.54,4.08.62-.31,1.27-.62,1.86-1.36ZM321.7,329.66c-.55-2.06-1.1-4.12-1.65-6.18-.22,1.08-.86,2.27-.58,3.24.35,1.19,1.45,2.19,2.23,2.94ZM343.25,407.97c.3.85.61,1.72.92,2.56.66-.26,1.9-.64,1.87-.76-.32-1.2-.84-2.36-1.31-3.52-.53.44-1.05.89-1.49,1.72ZM279.38,296.58c1.27-1.5,2.58-2.99,3.76-4.57.17-.24-.32-1-.5-1.51-1.08,1.85-2.16,3.73-3.26,6.08ZM356.63,401.44c-1.05,2.04-2.1,4.07-3.15,6.09.34.14.98.4.99.36.83-2.03,1.61-4.11,2.16-6.45ZM42.5,183.7c.33,1.43.51,2.9,1.02,4.27.33.89,1.12,1.63,1.71,2.44.1-.27.35-.58.27-.83-.66-2.37-1.35-4.72-2.04-7.07-.34.26-.71.51-.95,1.18ZM63.08,228.15c-.56-1.36-1.1-2.72-1.66-4.08-.22.69-.71,1.4-.62,2.07.2,1.42.71,2.82,1.07,4.23.38-.62.74-1.24,1.21-2.22ZM291.88,257.21c-1.44.02-2.87.06-4.32.09.6.66,1.19,1.83,1.79,1.87,1.6.1,3.19-.27,4.78-.45-.61-.47-1.24-.92-2.25-1.52ZM53.72,321.35c.05.1.1.22.17.3.07.06.18.09.28.12-.25-2.83-.48-5.65-.75-8.48,0-.09-.33-.15-.52-.24.05,2.07.07,4.16.17,6.23.02.53.33,1.08.65,2.06ZM75.84,413.2c-.18-.09-.36-.21-.57-.28-.07-.01-.25.09-.25.16.04,3.52.09,7.06.19,10.59,0,.12.5.26.76.4,0-2.82,0-5.65-.02-8.46,0-.69-.01-1.35-.13-2.41ZM66.2,165.37c.05.33.09.67.14,1,.28-.05.79-.05.8-.16.37-2.68.67-5.38.92-8.08,0-.04-.65-.2-.99-.31-.28,2.36-.58,4.72-.87,7.55ZM212.64,526.63c-1.31-.7-2.62-1.4-3.94-2.11-.26.56-.51,1.15-.77,1.71,1.48.24,2.96.49,4.71.4ZM171.64,486.03c1.14-.24,2.3-.48,3.43-.71-1.47-1.4-2.96-2.8-4.42-4.19.19,1.55.37,3.12.99,4.9ZM352.52,519.15c-.7.65-1.41,1.33-2.11,1.99.1.1.27.3.3.28,2.22-1.33,4.44-2.64,6.59-4.06.25-.17.1-.91.15-1.38-1.5.98-3,1.96-4.93,3.18ZM411.27,446.5c.12,1.76.26,3.52.39,5.27.45-.02.91-.03,1.36-.05-.43-1.72-.86-3.46-1.75-5.22ZM367.64,372.52c.72.03,1.44.07,2.18.12-.28-1.19-.45-2.43-.89-3.58-.21-.5-.99-.8-1.51-1.19-.03,1.43-.03,2.88.22,4.65ZM211.2,601.45c.02.93.05,1.87.07,2.8,1.34-.22,2.7-.41,4.01-.72.15-.04.19-1.05.15-1.07-1.28-.4-2.57-.75-4.23-1.02ZM295.03,368.53c-1.71-1.28-3.42-2.54-5.13-3.82.06.48-.06,1.18.21,1.43,2.01,1.82,4.1,3.54,6.16,5.28-.31-.84-.61-1.67-1.24-2.89ZM161.04,336.62c.13,1.31.1,2.64.45,3.9.16.61,1.07,1.04,1.65,1.55.21-.38.7-.87.59-1.14-.83-1.99-1.76-3.94-2.67-5.9-.03.41-.05.82-.02,1.6ZM364.18,448.34c-.46-.45-.92-.9-1.39-1.34-.35,1.53-.78,3.05-.98,4.6-.04.27.83.73,1.28,1.11.38-1.31.77-2.62,1.09-4.37ZM74.14,420.73c-.57.12-1.65.23-1.64.34.15,2.11.42,4.23.74,6.34.03.14.64.24.98.35,0-2.22,0-4.44-.08-7.03ZM258.71,346.54c-.52.31-1.06.61-1.58.91.98,1.01,1.9,2.1,2.98,2.97.25.2,1.09-.35,1.65-.55-.87-1.08-1.74-2.13-3.04-3.33ZM371.74,355.84c1.32,1.72,2.57,3.49,4.02,5.1.37.4,1.4.2,2.13.27-1.67-1.9-3.32-3.82-5.02-5.68-.15-.14-.64.01-1.14.31ZM242.51,324.94c-.54-.22-1.07-.41-1.61-.62.8,2.52,1.54,5.05,2.42,7.53.16.44.95.68,1.44,1.02-.09-.5-.13-1.01-.27-1.52-.57-2.02-1.18-4.03-1.98-6.41ZM373.1,524.88c1.28-.59,2.9-.88,3.77-1.84.94-1.04,1.19-2.71,1.74-4.1-2.18,1.82-4.35,3.64-6.54,5.47.23.18.44.39,1.02.47ZM165.93,480.28c-.55-3.21-1.12-6.4-1.67-9.61-.21.07-.61.16-.61.2.61,3.06,1.24,6.11,2.28,9.41ZM330,558.03c.11-.9.21-1.8.32-2.7-1.59,1.68-3.19,3.35-4.77,5.04-.15.16-.06.52-.08.78,1.42-.91,2.83-1.82,4.53-3.12ZM397.41,392.39c.73.98,1.44,1.97,2.16,2.95.11-.29.4-.64.31-.83-1.27-2.66-2.58-5.3-3.94-7.89-.1-.18-.73-.1-1.12-.15.8,1.8,1.58,3.62,2.58,5.93ZM104.89,515.67c-.35-1.21-.57-2.45-1.07-3.6-.28-.64-1-1.1-1.52-1.64-.33.34-1.03.84-.96,1,.98,1.89,2.06,3.73,3.14,5.58.16-.32.33-.66.41-1.34ZM315.59,454.35c.45-.07,1.28-.15,1.29-.2-.2-2.17-.45-4.34-.83-6.51-.01-.11-1.18-.08-1.81-.13.39,2.17.77,4.31,1.35,6.85ZM265.39,256.07c-.53,1.19-1.04,2.37-1.57,3.57,1.79-1.02,3.61-1.98,5.34-3.1.41-.26.47-1.04.68-1.58-1.36.29-2.71.6-4.45,1.11ZM73.78,458.99c1.01.48,2.02.94,3.04,1.42-1.08-2.35-2.13-4.73-3.3-7.05-.1-.22-.89-.14-1.36-.2.41,1.81.84,3.61,1.61,5.84ZM313.68,304.82c0,2.2-.07,4.38.08,6.56.04.47.93.93,1.43,1.39-.39-2.53-.81-5.05-1.51-7.95ZM202.88,611.34c3-.07,5.97-.14,8.97-.21-.07-.37-.22-1.08-.24-1.08-2.94.29-5.85.63-8.73,1.29ZM294.28,341.45c-1.01-2.49-2.01-5-3.04-7.5-.26.64-.91,1.48-.69,1.89,1.09,2.06,2.4,4,3.73,5.61ZM354.22,395.45c-.08,1.02-.14,2.04-.23,3.05.82-.58,2.18-1.01,2.36-1.78.52-2.11.53-4.38.72-6.58.01-.09-.3-.22-.46-.33-.71,1.74-1.44,3.5-2.4,5.65ZM285.96,252.53c-1.12.7-2.26,1.34-3.3,2.14-.28.23-.2.91-.28,1.37,1.71-.36,3.42-.74,5.13-1.1-.38-.76-.78-1.51-1.55-2.41ZM297.83,386.12c-1.88-1.2-3.75-2.43-5.65-3.57-.24-.14-.73.2-1.1.32,1.08,1.13,2.01,2.55,3.31,3.32.93.56,2.33.24,3.45-.07ZM244.27,286.72c-.06-1.05-.12-2.11-.19-3.17-.55,1.32-1.46,2.57-1.54,3.93-.07,1.34.68,2.8,1.09,4.21.99-.88,1.96-1.77,2.96-2.67-.75-.64-1.5-1.29-2.31-2.3ZM42.43,95.37c.84.11,1.72.07,2.5.35,1.03.39,1.95,1.06,2.93,1.61-1.21-1.56-2.22-3.39-3.71-4.61-.74-.6-2.35-.1-3.55-.1.45.84.92,1.69,1.84,2.74ZM333.42,394.15c-.48,2.38-.97,4.76-1.34,7.15-.03.21.89.64,1.37.97.06-2.62.1-5.22-.03-8.12ZM284.22,315.51c.84,1.31,1.67,2.61,2.51,3.91-.03-1.94.21-3.91-.2-5.78-.25-1.13-1.57-2.07-2.4-3.1-.05,1.5-.1,3.02.09,4.96ZM59.27,101.1c-1.25-2.13-2.39-4.31-3.76-6.36-.53-.81-1.54-1.32-2.34-1.97-.12.59-.54,1.44-.29,1.74,1.95,2.28,4.02,4.46,6.39,6.59ZM331.94,312.3c1.25,1.24,2.45,2.54,3.76,3.7.42.38,1.15.43,1.73.64-1.5-2.04-3-4.07-4.51-6.11-.4.45-.81.91-.99,1.77ZM71.44,463.1c1.24,2.3,2.39,4.67,3.81,6.88.43.69,1.61.94,2.45,1.39-.04-.59.14-1.3-.14-1.73-1.73-2.68-3.55-5.29-5.37-7.91-.62-.92-1.27-1.83-1.91-2.74.32,1.22.64,2.43,1.15,4.13ZM308.4,303.07c-.39,2.49-.84,4.96-1.02,7.49-.02.28,1.56.78,2.39,1.17.08-1.52.38-3.05.19-4.54-.15-1.26-.85-2.52-1.56-4.12ZM82.03,279.55c.99.29,1.96.58,2.96.86.01-3.64.04-7.27-.02-10.9,0-.08-1.15-.29-1.15-.26-.73,3.34-1.4,6.71-1.79,10.3ZM172.65,489.76c-.3,1.04-1.2,2.57-.81,3.04,1.27,1.51,3.02,2.65,4.57,3.93.33-.46,1.06-1.2.95-1.35-1.33-1.92-2.79-3.73-4.7-5.62ZM138.04,578.42c-1.89-1.76-3.81-3.52-5.71-5.29,1.89,3.28,3.75,6.59,5.72,9.82.36.58,1.2.91,1.81,1.36-.46-1.87-.93-3.75-1.83-5.89ZM155.46,591.23c-.97-.02-1.96.08-2.91-.09-1.01-.19-1.97-.64-2.97-.97.93,1.36,1.62,3.14,2.88,4,1.34.9,3.24.93,4.89,1.33-.5-1.31-1-2.62-1.89-4.27ZM398.38,404.09c-1.27-1.73-2.64-3.41-3.79-5.22-.92-1.45-1.56-3.06-2.33-4.58.76,2.8,1.32,5.66,2.39,8.35.42,1.09,1.94,1.83,2.96,2.72.44.38.92.7,1.39,1.04-.12-.65-.25-1.28-.62-2.32ZM85.8,428.62c-.38-1.76-.74-3.54-1.19-5.28-.04-.13-1.08-.16-1.08-.16-.26,3.21-.51,6.41-.63,9.65-.02.59.46,1.22.7,1.83.69-1.87,1.38-3.74,2.2-6.04ZM169.34,470.9c-1.25-.18-2.51-.36-3.77-.57,1.66,2.15,3.24,4.35,5.05,6.37.33.37,1.53-.01,2.31-.05-1.05-1.83-2.12-3.68-3.59-5.75ZM69.14,170.85c.1,4.56.15,9.12.32,13.69.04.94.47,1.89.72,2.85.19-.85.57-1.69.56-2.55-.06-4.88-.12-9.77-.35-14.65-.08-1.44-.75-2.89-1.13-4.35-.05,1.5-.1,3.02-.11,5.01ZM63.98,452.89c-.54-.18-1.09-.36-1.64-.53,1.12,4.24,2.23,8.47,3.41,12.69.02.07.72-.01,1.1-.02-.55-3.4-1.07-6.82-1.68-10.23-.1-.51-.56-1-1.19-1.9ZM57.14,242.23c-.66-1.58-1.32-3.16-1.97-4.73.16,2.26.32,4.52.47,6.79.13,2.34.07,4.69.44,7,.13.77,1.31,1.45,2.01,2.15-.25-3.58-.5-7.17-.95-11.22ZM58.5,398.89c-.19-.84-.36-1.69-.55-2.53-.24.3-.69.57-.7.9-.16,4.53-.31,9.08-.3,13.63,0,.73.88,1.5,1.35,2.25.27-.22.79-.41.78-.63-.11-4.39-.28-8.79-.58-13.61ZM46.83,201.94c.13,2.59-.08,5.24.53,7.75.34,1.36,2.09,2.45,3.21,3.69.53-1.25,1.85-2.81,1.45-3.66-1.27-2.74-3.18-5.21-5.19-7.77ZM89.14,492.97c1.41,1.12,2.79,2.27,4.25,3.32.59.42,1.35.58,2.04.85-1.65-3.34-3.29-6.69-4.94-10.03-.47,1.79-.96,3.59-1.35,5.86ZM68.16,337.57c-.15-.4-.29-.81-.45-1.21-.15.35-.42.69-.43,1.05-.16,6.79-.36,13.6-.39,20.42,0,1.85.49,3.75.77,5.63.43-1.83,1.2-3.63,1.19-5.49-.07-6.67-.4-13.34-.69-20.4ZM53.03,404.95c-.01,2.91-.17,5.82-.01,8.73.07,1.24.76,2.49,1.17,3.74.37-1.12,1.05-2.23,1.06-3.39,0-5.26-.18-10.53-.35-15.77-.09-2.99-.32-6-.49-9-.36,2.95-.78,5.89-1.06,8.86-.21,2.1-.21,4.23-.31,6.83ZM237.65,285.26c-.47,1.39-1.2,2.74-1.39,4.2-.22,1.7.04,3.48.08,5.21.22-.18.5-.31.65-.54.6-.92,1.15-1.87,1.74-2.82-.04,1.37-.12,2.74-.08,4.12.04,1.67.15,3.32.31,4.98,0,.06.77.12,1.18.18.1-1.57.3-3.14.3-4.71,0-3.69-.03-7.38-.2-11.09-.09-1.87-.5-3.76-.78-5.64-.61,1.91-1.24,3.79-1.8,6.11ZM238.68,314.16c-.27-1.33-.42-2.67-.85-3.94-.63-1.91-1.44-3.77-2.17-5.66.21,2.09.52,4.18.59,6.27.03.91-.8,2-.47,2.72,1.14,2.55,2.5,5.03,4,7.4.37.57,1.57.65,2.39.96.05-1.7.59-3.57,0-5.05-.42-1.05-2.34-1.57-3.48-2.71ZM85.55,203.54c.59-5.92,1.4-11.8,1.66-17.76.1-2.38-.97-4.9-1.49-7.36-.66,2.21-1.79,4.38-1.88,6.65-.27,6.21-.13,12.46-.13,18.7,0,1.38.12,2.76.19,4.14.55-1.29,1.07-2.61,1.65-4.37ZM233.03,518.51c-3,.54-6.25.59-8.93,1.78-2.46,1.1-4.31,3.44-6.42,5.23.71.32,1.42.83,2.15.93,2.04.28,4.27.92,6.11.45,4.03-1.04,7.87-2.66,11.79-4.03-1.42-1.42-2.84-2.82-4.71-4.34ZM305.83,320.25c2.61,3.94,5.21,7.89,7.85,11.81.51.76,1.23,1.39,1.86,2.07.37-.71,1.07-1.38,1.07-2.12-.01-3.34-.13-6.7-.47-10.05-.06-.7-1.15-1.38-1.79-2.07-.2.29-.56.57-.58.89-.04.66.09,1.33.16,2-.53-.74-.92-1.67-1.63-2.16-1.24-.88-2.67-1.52-4.03-2.22-.27-.14-.72,0-.86-.18-.75-.96-1.43-1.98-2.14-2.98.11,1.53.23,3.05.55,5ZM342.92,311.11c-.51-3.07-.42-6.38-1.68-9.13-.84-1.84-3.5-3.1-5.54-4.19-.63-.33-2.83.87-2.77,1.24.4,2.51.59,5.41,2.03,7.35,2.06,2.78,5.14,4.87,7.76,7.24.08-.69.17-1.36.21-2.51ZM409.04,445.04c-2.73-9.56-5.44-19.14-8.33-28.65-.2-.63-1.95-.88-2.99-1.31-.2.61-.6,1.23-.52,1.83.51,3.8.9,7.65,1.82,11.39.39,1.6,1.95,2.99,2.97,4.47.28-.33.71-.59.85-.99.37-1.04.62-2.14.92-3.22.56,1.46,1.42,2.9,1.65,4.37.57,3.65.77,7.35,1.37,11.01.08.56,1.45,1.01,2.26,1.11ZM228.21,612.35c-2.87.47-5.74.96-8.63,1.38-.11.01-.36-.66-.55-1.01,2.36-.88,4.72-1.76,7.08-2.6,3.98-1.39,8.06-2.61,11.94-4.19.98-.41,1.41-2.02,2.09-3.09-1.45.06-3.13-.33-4.29.23-7.32,3.5-14.46,7.32-21.79,10.78-2.83,1.33-6.03,1.97-9.03,2.98-.84.29-1.61.77-2.42,1.17.84.13,1.75.48,2.54.37,7.71-1.03,15.44-2.05,23.1-3.31,2.21-.37,4.24-1.5,6.36-2.26-2.01-.18-4.03-.34-6.42-.46ZM70.91,237.02c-.15,4.45-.31,8.91-.35,12.74-.75-4.24-1.37-8.48-2.35-12.68-.31-1.38-1.57-2.58-2.39-3.86-.51,1.56-1.65,3.17-1.41,4.66,1.69,10.73,3.63,21.45,5.54,32.16.08.42.61.77.92,1.16.38-.57,1.1-1.15,1.06-1.71-.43-6.32-.98-12.63-1.33-18.43,2.1.45,4.18.9,6.29,1.36.16-3.04,1.19-6.32.25-9.05-.86-2.49-3.85-4.36-6.21-7.01-.34-.73-.55-1.55-1.06-2.14-.38-.46-1.13-.63-1.7-.93,1.05,1.12,2.09,2.28,2.74,3.75ZM174.28,366.52c.38-1.67,1.57-4.28.98-4.79-1.42-1.25-3.68-1.5-5.62-2.16,0,.94-.26,1.96.04,2.81,1.15,3.35,2.47,6.66,3.72,9.98.07-1.6.14-3.18.46-4.29.36,1.08.72,2.14,1.07,3.23.41,1.28.79,2.55,1.19,3.82,1.29-.58,3.76-1.45,3.67-1.7-.8-2.56-1.97-5.04-3.21-7.46-.03-.08-1.83.63-2.3.55ZM81.69,253.74c-.21-3.88-.42-7.78-.63-11.66,0,2.99,0,6-.01,9.01,0,.98-.04,1.98-.36,3.16.12,2.66-.23,5.43.53,7.94.5,1.66,2.57,2.96,3.94,4.42.31-1.07,1.16-2.34.83-3.18-1.32-3.19-3.02-6.24-4.29-9.69ZM418.23,448.66c-.15-3.02-.26-6.05-.5-9.06-.03-.38-.67-.76-1.03-1.15.19,2.19.39,4.36.56,6.55.1,1.3.14,2.6.02,4.31-.34,2.7-.82,5.38-.91,8.11-.02.54,1.49,1.24,2.29,1.86-.24-3.45-.48-6.9-.43-10.63ZM72.45,340.58c-.32,1.94-.63,3.85-.95,5.78.78-.26,2.22-.5,2.2-.77-.11-1.82-.52-3.67-.63-6-.06-.98-.14-1.95-.21-2.93-.26.08-.77.19-.75.22.24,1.12.53,2.24.34,3.69ZM164.35,595.06c1.83,2.21,3.66,4.43,5.56,6.59.11.13.83-.28,1.28-.43-2.06-1.92-4.13-3.82-5.95-6.11-.48-1.73-.93-3.47-1.48-5.2-.05-.14-.77-.09-1.19-.13.73,1.77,1.47,3.57,1.78,5.28ZM83.84,485.2c.22-1.7.43-3.38.73-5.53-.88-.99-1.78-1.98-2.66-2.97-.19.58-.67,1.22-.51,1.72.68,2.17,1.52,4.31,2.45,6.78ZM184.03,494.77c.54.83,1.08,1.68,1.61,2.5.25-.43.77-1.18.69-1.24-.83-.75-1.77-1.41-2.96-2.42-1.44.1-2.86.2-4.31.3.89,1.07,1.78,2.15,2.67,3.22.71-.93,1.4-1.86,2.29-2.36ZM295.9,308.7c.99,1.57,1.99,3.14,2.98,4.71.02-1.05.44-2.36-.06-3.06-.63-.9-2-1.31-3.05-2.48-.49-.67-.96-1.33-1.44-2.01-.24.66-.79,1.37-.65,1.96.23.92.92,1.75,1.43,2.61.21-.72.43-1.47.8-1.73ZM122.73,298c.71.41,1.42.81,2.13,1.22-.03-.5.12-1.18-.13-1.45-.72-.74-1.62-1.3-2.45-1.93.08.61.14,1.22-.05,1.34-.39-.57-.69-1.23-1.17-1.69-.38-.36-.97-.51-1.47-.75.98.97,1.94,1.92,3.14,3.26ZM240.87,266.03c5.69-4.45,10.67-11.02,17.25-12.84,8.9-2.48,14.65-15.94,27.21-7.08.51.35,2.79-2.85,4.14-2.69,4.99.61,10.84.6,14.74,3.31,7.7,5.33,14.45,12.17,21.29,18.71,2.62,2.5,4.44,5.88,6.59,8.86.23.32.56.92.44,1.09-.91,1.28-1.74,2.72-2.98,3.6-.64.45-2.04-.16-3.11-.3.53,1.1.84,2.41,1.66,3.21.75.74,2.12.78,3.06,1.36,3.21,2.01,6.32,4.18,9.54,6.18,4.49,2.81,10.4,4.53,13.25,8.44,5.95,8.14,10.3,17.41,15.24,26.27.23.4-.33,1.22-.52,1.85-.4-.54-.76-1.09-1.17-1.61-7.07-9.3-14.13-18.61-21.26-27.86-.29-.37-1.2-.3-1.82-.44-.02.52-.19,1.07-.03,1.53.94,2.58,1.98,5.11,2.95,7.68.26.7.41,1.45.61,2.19-.38-.6-.71-1.25-1.15-1.81-.31-.43-.73-.78-1.1-1.16-.24.38-.78.91-.67,1.1,3.81,6.6,7.68,13.17,11.6,19.7.04.07,1.28-.41,1.26-.44-1.57-4.76-3.18-9.5-4.88-14.23-.4-1.12-1.15-2.13-1.74-3.2,1.04.64,2.48,1.03,3.07,1.94,5.27,8.35,10.43,16.77,15.52,25.21,1.38,2.3,2.48,4.76,3.71,7.15-.44-2.29-.88-4.57-1.09-6.78.49.61.76,1.14,1.02,1.67,1.04-.21,2.52-.97,3.03-.53,1.85,1.55,4.13,3.25,4.89,5.32,3.59,9.72,6.33,19.72,10.2,29.32,2.98,7.42,7.37,14.34,10.84,21.59,2.1,4.37,3.54,9.03,5.5,13.48.7,1.61,1.99,2.99,3.03,4.47.22-.81.43-1.61.67-2.4.03-.11.43-.21.45-.19,1.54,2.25,3.89,4.38,4.45,6.8,2.41,10.5,5.12,21.07,6.09,31.66.7,7.63-1.17,15.32-1.98,22.96-.07.7-.88,1.26-1.36,1.88-.23-.72-.53-1.45-.68-2.19-.39-1.91-.73-3.82-1.08-5.74-.88,2.64-1.93,5.23-2.58,7.95-.55,2.28-.55,4.73-.95,7.05-.27,1.58-.83,3.08-1.24,4.62,1.02-1.35,2.07-2.67,3.07-4.06.28-.4.46-.91.67-1.37.12.39.35.79.33,1.18-.2,4.56-.42,9.11-.63,13.66-.03.67,0,1.36,0,2.03.35-.51.88-.97,1.02-1.54,1.08-4.1,2.05-8.23,3.1-12.34.08-.35.4-.62.62-.94.11.43.37.89.29,1.26-1.2,5.19-2.68,10.31-3.56,15.56-.24,1.45,1.32,3.31,2.01,5,.22.53.59,1.47.39,1.64-5.98,5.17-12.32,9.96-17.95,15.49-4.48,4.41-8.09,9.68-12.04,14.61-.15.19.15.77.24,1.18.72-.15,1.55-.13,2.14-.48,1.08-.63,2.02-1.47,3.02-2.23-.55,1.02-.85,2.38-1.7,2.97-1.94,1.38-4.02,3.06-6.28,3.39-3.24.47-6.7-.23-10.06-.25-.79,0-1.51.82-2.31,1.18-2.98,1.33-5.98,2.62-8.98,3.92-.04-.13-.14-.35-.1-.36,2.89-1.72,5.77-3.42,8.64-5.14,2.57-1.54,5.12-3.12,7.67-4.67-2.55.94-5.12,1.83-7.66,2.82-2.94,1.15-5.76,3.28-8.76,3.3-2.24.03-4.68-2.59-7.05-3.98-.48-.29-1.13-.71-1.53-.6-1.26.34-2.47.91-3.69,1.4,1.28-.78,2.62-1.48,3.82-2.37.96-.7,1.76-1.6,2.64-2.41-1.25.3-2.67.32-3.71.96-3.95,2.42-7.79,5.01-11.6,7.64-.93.64-1.62,1.62-2.41,2.43,1.23-.35,2.47-.69,3.7-1.04,1.6-.45,3.19-.88,4.79-1.31-1.24,1-2.44,2.02-3.7,2.98-1,.75-2.1,1.41-3.14,2.11,1.24.29,2.5.52,3.73.91.41.13.71.63,1.05.97-2.21,1.52-4.4,3.04-6.61,4.54-.22.16-.58.11-.88.16.59-.59,1.19-1.16,1.77-1.75.35-.37.67-.76,1.01-1.14-.53.09-1.3,0-1.53.33-1.31,1.82-2.28,3.93-3.77,5.56-1.22,1.32-3.02,2.11-4.56,3.16-.63.44-1.2.95-1.79,1.42.72.06,1.45.26,2.14.18,1.14-.11,2.26-.39,3.39-.58-.87.84-1.61,1.86-2.62,2.49-5.53,3.44-10.89,7.25-16.77,10.05-7.93,3.77-16.44,6.43-24.38,10.15-5.72,2.69-10.94,6.36-16.34,9.65-.23.13-.07.85-.11,1.29,1.52.02,3.08.17,4.57.01.9-.11,1.69-.71,2.54-1.09-.6.94-.98,2.13-1.81,2.78-4.68,3.78-9.47,7.45-14.25,11.13-.38.3-.97.32-1.41.58-3.41,1.85-6.82,3.7-10.2,5.59-6.9,3.89-13.76,7.85-20.73,11.63-.6.33-1.82-.42-2.76-.66.74-.47,1.41-1.11,2.22-1.37,2.09-.66,4.44-.78,6.31-1.78,2.07-1.1,4.14-2.62,5.42-4.53,2.18-3.25,3.79-6.93,5.56-10.46.5-1.02.81-2.15,1.19-3.24-1.98.57-4.17.82-5.87,1.84-1.4.86-2.23,2.64-3.29,4.02,1.06-.43,2.1-.91,3.18-1.28.43-.15.93-.06,1.41-.06-.19.38-.28.96-.59,1.1-2.27,1.03-4.54,2.08-6.91,2.9-1.13.39-3.12-.19-3.57.48-1.16,1.75-1.67,3.94-2.44,5.94,1.42-.41,2.82-.86,4.25-1.23.57-.15,1.2-.14,1.8-.2-.37.49-.67,1.37-1.13,1.43-13.68,1.87-27.29,4.44-41.11,5.06-5.5.24-11.43-4.23-17.32-5.73-1.72-.44-4,2-5.97,3.2-.12.08.19,1.31.43,1.4,2.65.83,5.36,1.4,7.98,2.32,1.76.63,3.43,1.7,5.09,2.62.16.09.02.88.14.92,1.77.6,3.54,1.12,5.31,1.66-3.48.01-7.13.82-10.4-.11-8.57-2.44-16.97-5.58-25.37-8.7-.51-.2-.33-2.65-.47-4.05,1.23.32,2.48.52,3.66.97,3.23,1.26,6.41,2.64,9.66,3.93.18.07.49-.24.74-.37-1.33-1.68-2.49-3.55-4.02-5.03-2-1.95-4.28-3.6-6.42-5.41-1.68-1.41-3.33-2.88-4.97-4.32.86,1.62,1.73,3.25,2.58,4.86-.58.16-1.31.64-1.71.44-1.38-.69-2.79-1.48-3.91-2.52-3.53-3.31-6.9-6.76-10.35-10.15-6.82-6.7-13.72-13.28-20.36-20.15-.98-1.01-.73-3.23-1.04-4.9,1.52,1.03,3.22,1.88,4.52,3.15,1.58,1.55,2.81,3.42,4.18,5.17-.97-1.83-1.91-3.68-2.93-5.5-5.37-9.55-10.77-19.09-16.12-28.65-.31-.57-.24-1.32-.51-1.93-.72-1.63-1.56-3.21-2.28-4.84-1.76-3.98-3.52-7.97-5.21-11.97-2.27-5.38-4.49-10.78-6.76-16.16-.06-.17-.43-.23-.65-.35.1,1.01.11,2.02.34,3.01,1.74,7.32,3.55,14.6,5.27,21.92.2.87-.06,1.84-.12,2.77-.58-.82-1.41-1.59-1.7-2.47-2.92-9.16-5.01-18.64-8.9-27.41-2.79-6.33-6.82-13.45-12.27-17.22-12.22-8.49-26.58-33.7-17.74-57.68,1.57-4.28-1.88-10.69-3.02-16.12-.44.32-1.23.59-1.25.97-.22,3.55-.25,7.14-.45,10.7-.13,2.14-.48,4.27-.72,6.4-1.53-2.22-4.27-4.47-4.37-6.65-.57-13.2-.82-26.41-.58-39.57.18-9.5,1.31-18.95,2.01-28.45.87,2.97,1.77,5.98,2.64,8.99.91,3.16,1.77,6.32,2.67,9.47.41-1.15,1.06-2.24,1.18-3.43.4-3.66.61-7.36.89-11.02.01.03.07.16.09-.06-.64-1.44-1.3-2.67-1.81-4.07.05-6.38-.03-12.55-.16-18.76-.02-1.12-.27-2.27-.41-3.41-.91,1.28-2.36,2.42-2.63,3.86-1.11,5.93-1.85,11.95-2.71,17.94.68-9.54,1.43-19.07,1.92-28.64.06-1.15-1.23-2.49-2-3.68-.18-.29-.75-.35-1.15-.51-.12,1.05-.18,2.11-.34,3.14-.57,3.57-1.17,7.13-1.74,10.69-.2-2.96-.29-5.91-.62-8.86-.63-5.38-1.91-10.81-1.88-16.13,0-1.95,4.08-3.48,4.36-5.58.81-6.05.63-12.32.85-18.49-1.6,1.4-3.19,2.78-4.75,4.2-.22.2-.3.57-.61,1.01-.17.14-.09.11-.09.11-.31-2.34-.97-4.7-.85-6.98.74-15.78,1.71-31.53,2.28-47.33.02-.69-4.27-1.43-4.64-2.64-1.85-5.95-2.67-12.19-4.67-18.08-1.26-3.7-4.62-6.8-5.85-10.49-.81-2.49.45-5.56.92-8.17,1.55,3.3,2.94,6.41,4.4,9.5.02.05.81-.22,1.24-.34-1.53-2.71-3.04-5.43-4.56-8.13-.27-.5-.59-.99-.89-1.47-1.75-4.61-3.66-9.18-5.16-13.85-.39-1.23.39-2.74.63-4.13,1.67,1.87,3.93,3.52,4.87,5.68,2.38,5.39,4.14,11.01,6.24,16.51.46,1.2,1.33,2.24,2.01,3.36-.04-1.47.12-2.96-.15-4.4-.24-1.3-.92-2.56-1.42-3.82.56.85,1.1,1.7,1.71,2.5.1.14.74.14.76.08.1-.41.28-.92.12-1.28-1.49-3.51-3.05-6.99-4.59-10.49-1.34-3.01-2.61-6.07-4.04-9.04-.92-1.9-2.07-3.7-3.12-5.55-.44,1.23-.62,2.68-1.42,3.59-.33.39-2.52-.03-2.88-.64-5.68-9.63-11.22-19.34-16.75-29.06-.19-.33-.05-.83-.06-1.23.39.16.81.24,1.13.48,1.53,1.19,3.03,2.42,4.54,3.62-.91-2.71-1.7-5.48-2.81-8.12-.72-1.73-2.14-3.2-2.81-4.93-.35-.89.21-2.08.36-3.14.25.87.4,1.78.77,2.59.34.75.95,1.4,1.43,2.08.26-.42.79-.84.76-1.26-.64-7.66-.88-15.37-2.33-22.93-.45-2.36-4.25-4.27-6.54-6.38-.21-.19-.81-.2-.81-.3-.05-.99.04-1.96-.02-2.94-.22-2.76-.48-5.53-.77-8.3-.02-.15-.77-.39-.77-.39-.44.97-.93,1.91-1.24,2.93-.3.98-.41,2.02-.6,3.05-.78-1.09-2.16-2.15-2.24-3.24-.24-2.78.08-5.58.16-8.38,1.85,1.31,3.61,3.34,5.57,3.76,2.33.49,4.9-.23,7.28-.76.86-.19,1.43-1.36,2.15-2.08.71,1.34,1.17,2.96,2.22,3.96.78.77,2.3.77,3.5,1.28-.27,2.76-.56,5.37-1.02,8.08-.88,3.15-1.72,6.15-2.21,9.23-.23,1.41.27,2.98.32,4.48.06,1.43-.13,2.83,0,4.25.02.29,1.16.89,1.54.76.74-.25,1.84-.89,1.86-1.46.2-5.48.21-10.99.41-16.65.19-2.91.25-5.65.33-8.4.9-1.88,1.39-4.23,2.84-5.53,1.76-1.6,4.29-2.39,6.56-3.37.78-.34,1.77-.27,2.67-.37-.59-1.38-1.05-2.82-1.79-4.1-.72-1.23-1.73-2.3-2.61-3.44,1.48.66,3.36.97,4.35,2.07,2.25,2.54,3.48,8.54,7.01.95.39-.85,9.28,2.49,14.12,4.27,1.52.56,2.67,2.37,3.98,3.6-1.05-1.71-2.11-3.4-3.12-5.14-.41-.71-.68-1.48-1.02-2.24.7.17,1.56.12,2.05.54,3.18,2.76,6.24,5.68,9.41,8.43,1.03.91,2.28,1.52,3.43,2.29-.63-.96-1.28-1.92-1.86-2.9-.12-.19-.02-.51-.03-.77.38.24.96.42,1.1.77,2.33,5.68,4.61,11.39,6.84,17.13.09.23-.67,1.1-.92,1.05-1.25-.28-2.72-.47-3.64-1.26-3.16-2.72-6.13-5.67-9.16-8.54,1.46,3.88,3.01,7.73,4.34,11.64,3.52,10.33,6.98,20.68,10.36,31.05.21.64-.5,1.55-.78,2.33-.29-.81-.71-1.6-.87-2.42-.89-4.8-.8-9.96-2.75-14.31-2.75-6.14-6.94-11.74-10.68-17.46-.31-.47-1.93-.15-3.24-.38-1.43-1.7-2.56-3.24-3.68-4.78-.13.09-.27.19-.41.28,1.35,1.66,2.69,3.33,4.03,4.99,2.51,7.05,5.37,14.03,7.4,21.19,1.37,4.81,1.49,9.9,2.35,14.84.24,1.34,1.16,2.6,1.77,3.9.08-1.37.15-2.74.22-4.12.12-2.31.25-4.62.37-6.92,1.46,2.5,4.01,4.99,4.2,7.5,1.19,16.19,1.84,32.4,2.74,48.59.07,1.22.8,2.46,1.23,3.69.41-1.03,1.14-2.02,1.16-3.09.68-17.4,1.24-34.81,1.96-52.2.08-1.79.91-3.49,1.39-5.23.57,1.74,1.28,3.46,1.67,5.23,1.28,5.9,2.44,11.83,3.86,17.89.21.13.19-.02.19-.02-1.39,17.28-3.02,34.54-3.85,51.88-.1,2.21,4,4.88,6.09,7.38,1.37,1.63,3.91,3.64,3.71,5-2,13.16,3.95,22.48,14.86,29.71.46.31.8.8,1.2,1.2-.55-.2-1.29-.25-1.62-.63-6.69-7.79-13.34-15.62-20.01-23.44-.34-.39-.77-.72-1.16-1.05-.12.59-.24,1.18-.3,1.94.06.17.13.13.13.13-1.2,1.36-3.73,3.35-3.38,4,3.38,6.53,7.24,12.84,10.99,19.21.7,1.19,1.46,2.32,2.2,3.49-1.19-.31-2.4-.62-3.6-.92-.74-.18-1.48-.39-2.22-.58.37.91.5,2.1,1.15,2.71,10.26,9.45,20.59,18.84,30.95,28.17.45.4,1.49.11,2.25.15-.48-1.85-.41-4.27-1.57-5.43-5.16-5.13-10.72-9.84-16.03-14.81-.58-.55-.58-1.73-.84-2.61.66.53,1.34,1.04,1.98,1.58,11.57,9.71,23.79,18.77,34.44,29.42,5.35,5.34,7.65,13.64,11.7,20.4,1.44,2.42,4.73,3.95,5.79,6.42,2.22,5.13,3.47,10.61,5.21,15.92.37,1.09,1.21,2.04,1.83,3.07,0-1.16.29-2.39-.04-3.48-.69-2.39-1.73-4.71-2.56-7.09-.22-.59-.18-1.25-.27-1.87.38.46.77.93,1.16,1.37.29.33.6.62.91.95.08-.27.26-.54.21-.8-.66-3.41-1.37-6.82-2.07-10.23-.29-1.4-.63-2.77-.94-4.17.71,1.38,1.49,2.74,2.11,4.14,2.85,6.48,5.65,12.97,8.53,19.44.27.62,1,1.04,1.52,1.56.18-.72.71-1.54.5-2.14-2.23-6.2-4.58-12.37-6.91-18.53-.17-.45-.51-.84-.76-1.26.48.29,1.24.47,1.42.86,2.86,6.71,5.91,13.36,8.4,20.18,3.08,8.44,8.14,17.23,7.97,25.5-.24,11.88-4.73,23.36-6.75,35.17-.96,5.68-.41,11.7-.5,17.57-.01.31.45.66.69.99.14-.52.35-1.02.42-1.55.97-6.52,1.92-13.06,2.9-19.59.07-.43.42-.81.63-1.2.35.44.96.87,1.01,1.32,1.3,10.93,3.27,21.91,3.37,32.78.04,4.02-4.44,7.71-6.69,11.66-1.3,2.3-2.5,4.74-3.34,7.28-.44,1.3,0,2.95.02,4.46-.65-1.42-1.31-2.83-1.97-4.25-.05-.1-.1-.3-.14-.29-.48-.01-1.37-.08-1.39.04-.75,4.66-1.45,9.35-2.04,14.04-.02.18,1.13.56,1.72.87.28.14.58.33.74.58,1.48,2.23,2.92,4.48,4.3,6.93-.79.88-2.13,1.52-2.11,2.23.03.95,1.08,1.94,1.69,2.9.23-1.73.45-3.45.68-5.18,4.16,4.75,7.82,10.16,12.62,14.09,6.26,5.12,13.32,9.31,20.31,13.38,1.49.87,4.25-.19,6.26-.82,6.69-2.11,13.29-4.43,20.17-6.7.24-.03.23-.09.23-.09-.11,1.19-.21,2.39-.36,3.58-.06.49-.23.94-.35,1.41.82-.38,1.68-.7,2.47-1.15,1.46-.86,2.87-1.79,4.3-2.69-.95,1.21-2,2.36-2.85,3.64-.53.8-.78,1.8-1.15,2.7.88-.58,1.73-1.19,2.63-1.73,4.77-2.81,9.55-5.59,14.32-8.37,0,.47.18,1.13-.06,1.37-1.27,1.33-2.58,2.64-4,3.82-1.57,1.32-3.27,2.47-4.92,3.71.42.12.92.43,1.23.3,3.26-1.3,6.99-2.06,9.64-4.15,5.33-4.19,10.07-9.12,15.07-13.73.14-.12.54.02.81.02-.15.39-.21.92-.5,1.16-2.2,1.72-4.45,3.36-6.64,5.07-.66.5-1.22,1.13-1.83,1.68.73.17,1.45.34,2.17.51.44.1.87.22,1.3.34-.15.33-.29.68-.46,1.01-1.3,2.45-2.62,4.89-3.93,7.33,2.41-1.28,4.94-2.36,7.2-3.82,8.89-5.77,17.81-11.48,26.46-17.57,2.63-1.85,4.53-4.74,6.54-7.34.38-.5-.28-1.86-.46-2.81-.59.53-1.12,1.19-1.8,1.59-7.92,4.77-15.88,9.45-23.77,14.25-1.94,1.18-3.68,2.66-5.51,4,1.72-2.01,3.16-4.34,5.18-5.97,4.72-3.78,9.66-7.29,14.65-10.73,1.72-1.18,4.18-1.42,5.67-2.8,1.38-1.27,5.68-5.23-1.62-3.24-.2.05-.49-.1-.73-.15.34-.26.64-.59,1.03-.77,11.97-5.43,9.88-15.72,7.34-26.09-1.27-5.16-2.7-10.29-4.09-15.43-.22-.81-.53-1.59-.82-2.39-.36.87-.87,1.69-1.05,2.6-.27,1.44-.32,2.94-.45,4.41-.07-1.6-.09-3.21-.25-4.81-.17-1.77-.46-3.55-.89-5.49-.2-.16-.2-.1-.2-.1-3.96-6.86-7.95-13.72-11.91-20.58-.54-.93-.99-1.9-1.49-2.86.63.57,1.32,1.1,1.89,1.72,1.93,2.09,3.83,4.21,5.74,6.32-1.24-2.28-3.1-4.47-3.62-6.87-1.36-6.15-2.18-12.39-3.07-18.6-.24-1.63.04-3.3.3-4.59,2.43,1.25,4.63,2.13,7.01,3.1.73-.18,1.3-.41,1.85-.66-.38-.48-.76-.95-1.14-1.43-.3.71-.57,1.42-.98,1.88-2.28-1.21-4.45-2.17-6.62-3.12-.8-1.73-1.55-3.49-2.43-5.19-1.14-2.2-2.39-4.35-3.58-6.53-.61.49-1.75.98-1.73,1.51.03,1.41.56,2.84.87,4.25.43,1.96.85,3.92,1.28,5.88-1.64-1.1-3.24-2.22-4.9-3.27-.52-.34-1.12-.69-1.67-.69-.25,0-.73.83-.64,1.22.2.93.66,1.83,1.03,2.74-.84-1.19-1.45-2.66-2.53-3.5-1.67-1.31-3.67-2.18-5.53-3.25.42,1.31.9,2.6,1.25,3.91.76,2.9,1.45,5.82,2.15,8.74-2.84-2.92-5.78-5.74-8.48-8.77-1.57-1.75-2.78-3.82-4.15-5.75.26,1.69.24,3.47.85,5.04,2.1,5.42,4.66,10.7,6.55,16.17.75,2.16.22,4.7.28,7.05-1.58-1.81-3.23-3.55-4.74-5.41-1.96-2.42-3.86-4.88-5.66-7.4-3.09-4.32-6.12-8.66-9.04-13.1-.29-.43.49-1.54.78-2.33.43.27.9.5,1.29.8,1.73,1.31,3.43,2.67,5.15,3.99.12-.22.38-.5.32-.65-1.15-2.42-2.08-4.99-3.59-7.17-1.53-2.22-3.47-4.26-5.56-5.98-1.47-1.21-3.49-1.74-5.27-2.57.68.92,1.36,1.84,2.02,2.75.6.82,1.2,1.67,1.8,2.49-1.08-.59-2.37-.98-3.23-1.82-1.56-1.51-3.26-3.12-4.19-5.01-1.06-2.16-1.35-4.66-1.98-7.02,1.89,1.99,3.7,4.08,5.69,5.97.79.73,2,1.02,3,1.51,0-1.43.49-3.08-.08-4.26-.92-1.9-2.75-3.38-3.83-5.24-1.67-2.87-3.06-5.9-4.57-8.87.15-.04.4-.17.44-.12,2.56,2.89,5.5,5.57,7.59,8.78,3.98,6.06,7.46,12.44,11.19,18.66.2.34.73.49,1.11.73-.06-.29-.07-.61-.19-.86-5.38-11.32-10.91-22.58-16.07-33.98-1.22-2.72-.38-6.54-2-8.76-2.15-2.94-5.85-4.73-8.81-7.14-.45-.37-.72-1.29-.68-1.91.58-11.06.38-22.3,2.16-33.08,1.05-6.37,5.25-12.03,8.03-18,.88.92,1.73,1.85,2.57,2.96-.2.98-.36,1.8-.53,2.59.21.01.57.05.58.01-.08-.85-.02-1.73.05-2.61Z"></path></g></svg>