<svg xmlns="http://www.w3.org/2000/svg" id="Layer_2" data-name="Layer 2" viewBox="0 0 422.79 526.04"><defs><style>      .cls-1 {        fill: #867195;      }    </style></defs><g id="Layer_1-2" data-name="Layer 1"><g><path class="cls-1" d="M2.31,101.51C9.33,13.02,32.83-8.14,77.78,2.54c39.89,9.36,54.21,79.03,25.66,185.11-20.88,77.72-28.56,130.71-62.55,123.69C.9,303.38-4.06,185.12,2.31,101.51Z"></path><path class="cls-1" d="M259.52,208.34c33.71,1.97,56.18,32.87,57.68,64.89,1.5,32.02-131.09,99.44-192.6,106.18-61.52,6.74,70.88-174.91,134.93-171.07Z"></path><path class="cls-1" d="M143.22,468.17s177.9-72.85,227.53-52.9c49.63,19.94,90.64,95.51-9.36,106.93-71.74,6.94-143.15,4.48-214.23-7.4-2.62-.48-5.09-1.37-7.41-2.66-2.32-1.29-4.38-2.93-6.17-4.9s-3.21-4.18-4.27-6.62c-1.06-2.44-1.7-4.98-1.93-7.64-.22-2.65-.02-5.27.62-7.85.64-2.58,1.67-5,3.1-7.24,1.43-2.24,3.18-4.2,5.26-5.86,2.07-1.67,4.36-2.95,6.86-3.87Z"></path></g></g></svg>